<svg width="443" height="293" viewBox="0 0 443 293" fill="none"
    xmlns="http://www.w3.org/2000/svg"
    xmlns:xlink="http://www.w3.org/1999/xlink">
    <rect width="443" height="293" rx="10" fill="#D9D9D9" fill-opacity="0.24"/>
    <rect x="0.5" y="0.5" width="442" height="292" rx="9.5" stroke="white" stroke-opacity="0.21"/>
    <path d="M355.773 285V279.182H357.651C358.063 279.182 358.408 279.261 358.685 279.42C358.963 279.578 359.172 279.792 359.312 280.062C359.455 280.333 359.526 280.638 359.526 280.977C359.526 281.316 359.455 281.622 359.315 281.895C359.175 282.166 358.967 282.381 358.69 282.54C358.414 282.697 358.07 282.776 357.659 282.776H356.182V282.298H357.645C357.95 282.298 358.203 282.241 358.403 282.128C358.604 282.012 358.754 281.855 358.852 281.656C358.953 281.457 359.003 281.231 359.003 280.977C359.003 280.723 358.953 280.497 358.852 280.298C358.754 280.099 358.603 279.943 358.401 279.83C358.2 279.716 357.945 279.659 357.636 279.659H356.304V285H355.773ZM362.317 285.091C361.94 285.091 361.607 284.995 361.317 284.804C361.029 284.613 360.804 284.348 360.641 284.011C360.478 283.672 360.396 283.281 360.396 282.838C360.396 282.391 360.478 281.998 360.641 281.659C360.804 281.318 361.029 281.053 361.317 280.864C361.607 280.672 361.94 280.577 362.317 280.577C362.694 280.577 363.026 280.672 363.314 280.864C363.602 281.055 363.827 281.32 363.99 281.659C364.155 281.998 364.237 282.391 364.237 282.838C364.237 283.281 364.156 283.672 363.993 284.011C363.83 284.348 363.604 284.613 363.314 284.804C363.026 284.995 362.694 285.091 362.317 285.091ZM362.317 284.628C362.62 284.628 362.876 284.546 363.087 284.384C363.297 284.221 363.456 284.004 363.564 283.733C363.674 283.462 363.729 283.164 363.729 282.838C363.729 282.512 363.674 282.213 363.564 281.94C363.456 281.668 363.297 281.449 363.087 281.284C362.876 281.119 362.62 281.037 362.317 281.037C362.016 281.037 361.759 281.119 361.547 281.284C361.337 281.449 361.177 281.668 361.067 281.94C360.959 282.213 360.905 282.512 360.905 282.838C360.905 283.164 360.959 283.462 361.067 283.733C361.177 284.004 361.337 284.221 361.547 284.384C361.757 284.546 362.014 284.628 362.317 284.628ZM366.168 285L364.849 280.636H365.384L366.418 284.236H366.455L367.486 280.636H368.023L369.045 284.227H369.085L370.119 280.636H370.653L369.335 285H368.812L367.778 281.423H367.724L366.69 285H366.168ZM373.252 285.091C372.845 285.091 372.493 284.996 372.195 284.807C371.898 284.616 371.668 284.351 371.505 284.014C371.344 283.675 371.263 283.285 371.263 282.844C371.263 282.404 371.344 282.014 371.505 281.673C371.668 281.33 371.892 281.062 372.178 280.869C372.466 280.674 372.799 280.577 373.175 280.577C373.412 280.577 373.64 280.62 373.86 280.707C374.08 280.793 374.277 280.924 374.451 281.102C374.627 281.278 374.766 281.501 374.869 281.77C374.971 282.037 375.022 282.353 375.022 282.719V282.969H371.613V282.523H374.505C374.505 282.242 374.448 281.991 374.335 281.767C374.223 281.542 374.067 281.364 373.866 281.233C373.667 281.102 373.437 281.037 373.175 281.037C372.899 281.037 372.656 281.111 372.445 281.259C372.235 281.406 372.07 281.601 371.951 281.844C371.834 282.086 371.774 282.351 371.772 282.639V282.906C371.772 283.253 371.832 283.556 371.951 283.815C372.072 284.073 372.244 284.273 372.465 284.415C372.687 284.557 372.949 284.628 373.252 284.628C373.459 284.628 373.639 284.596 373.795 284.531C373.952 284.467 374.084 284.381 374.19 284.273C374.298 284.163 374.379 284.043 374.434 283.912L374.914 284.068C374.848 284.252 374.739 284.421 374.587 284.577C374.438 284.732 374.25 284.857 374.025 284.952C373.801 285.045 373.544 285.091 373.252 285.091ZM376.136 285V280.636H376.628V281.307H376.665C376.752 281.087 376.903 280.91 377.119 280.776C377.337 280.639 377.583 280.571 377.858 280.571C377.9 280.571 377.946 280.572 377.997 280.574C378.048 280.576 378.091 280.578 378.125 280.58V281.094C378.102 281.09 378.063 281.084 378.006 281.077C377.949 281.069 377.887 281.065 377.821 281.065C377.594 281.065 377.391 281.114 377.213 281.21C377.037 281.305 376.898 281.437 376.795 281.605C376.693 281.774 376.642 281.966 376.642 282.182V285H376.136ZM380.619 285.091C380.212 285.091 379.86 284.996 379.562 284.807C379.265 284.616 379.035 284.351 378.872 284.014C378.711 283.675 378.631 283.285 378.631 282.844C378.631 282.404 378.711 282.014 378.872 281.673C379.035 281.33 379.259 281.062 379.545 280.869C379.833 280.674 380.166 280.577 380.543 280.577C380.779 280.577 381.008 280.62 381.227 280.707C381.447 280.793 381.644 280.924 381.818 281.102C381.994 281.278 382.134 281.501 382.236 281.77C382.338 282.037 382.389 282.353 382.389 282.719V282.969H378.98V282.523H381.872C381.872 282.242 381.815 281.991 381.702 281.767C381.59 281.542 381.434 281.364 381.233 281.233C381.034 281.102 380.804 281.037 380.543 281.037C380.266 281.037 380.023 281.111 379.812 281.259C379.602 281.406 379.438 281.601 379.318 281.844C379.201 282.086 379.141 282.351 379.139 282.639V282.906C379.139 283.253 379.199 283.556 379.318 283.815C379.439 284.073 379.611 284.273 379.832 284.415C380.054 284.557 380.316 284.628 380.619 284.628C380.826 284.628 381.007 284.596 381.162 284.531C381.319 284.467 381.451 284.381 381.557 284.273C381.665 284.163 381.746 284.043 381.801 283.912L382.281 284.068C382.215 284.252 382.106 284.421 381.955 284.577C381.805 284.732 381.617 284.857 381.392 284.952C381.169 285.045 380.911 285.091 380.619 285.091ZM385.075 285.091C384.717 285.091 384.403 284.996 384.134 284.807C383.865 284.617 383.655 284.353 383.504 284.014C383.354 283.675 383.279 283.28 383.279 282.83C383.279 282.381 383.354 281.988 383.504 281.651C383.655 281.312 383.866 281.048 384.137 280.861C384.408 280.671 384.723 280.577 385.083 280.577C385.348 280.577 385.569 280.624 385.745 280.719C385.921 280.812 386.062 280.927 386.168 281.065C386.274 281.204 386.357 281.338 386.415 281.469H386.461V279.182H386.969V285H386.475V284.19H386.415C386.357 284.323 386.273 284.459 386.165 284.599C386.058 284.738 385.915 284.854 385.737 284.949C385.56 285.044 385.34 285.091 385.075 285.091ZM385.134 284.628C385.416 284.628 385.657 284.551 385.856 284.398C386.055 284.242 386.206 284.029 386.31 283.759C386.416 283.486 386.469 283.173 386.469 282.821C386.469 282.473 386.417 282.165 386.313 281.898C386.209 281.629 386.058 281.419 385.859 281.267C385.66 281.114 385.418 281.037 385.134 281.037C384.843 281.037 384.596 281.116 384.396 281.276C384.197 281.433 384.045 281.646 383.941 281.915C383.839 282.184 383.788 282.486 383.788 282.821C383.788 283.16 383.84 283.466 383.944 283.739C384.048 284.011 384.2 284.228 384.398 284.389C384.599 284.548 384.844 284.628 385.134 284.628ZM390.765 285V279.182H392.728C393.107 279.182 393.422 279.248 393.674 279.381C393.928 279.513 394.118 279.694 394.245 279.923C394.372 280.152 394.435 280.413 394.435 280.705C394.435 280.947 394.395 281.154 394.313 281.327C394.232 281.499 394.121 281.638 393.981 281.744C393.841 281.85 393.684 281.927 393.512 281.974V282.02C393.7 282.033 393.881 282.099 394.058 282.219C394.234 282.336 394.379 282.501 394.492 282.713C394.606 282.925 394.663 283.179 394.663 283.474C394.663 283.768 394.597 284.03 394.467 284.261C394.336 284.491 394.135 284.671 393.864 284.804C393.595 284.935 393.253 285 392.836 285H390.765ZM391.296 284.523H392.836C393.285 284.523 393.616 284.423 393.83 284.224C394.046 284.026 394.154 283.776 394.154 283.474C394.154 283.253 394.1 283.052 393.992 282.872C393.886 282.69 393.736 282.546 393.54 282.44C393.347 282.334 393.12 282.281 392.859 282.281H391.296V284.523ZM391.296 281.81H392.776C393.005 281.81 393.206 281.762 393.379 281.668C393.551 281.573 393.685 281.442 393.782 281.276C393.879 281.109 393.927 280.919 393.927 280.705C393.927 280.396 393.826 280.145 393.626 279.952C393.425 279.757 393.126 279.659 392.728 279.659H391.296V281.81ZM396.192 286.636C396.091 286.636 395.998 286.627 395.911 286.608C395.823 286.589 395.754 286.568 395.703 286.545L395.839 286.099C396.012 286.152 396.165 286.171 396.3 286.156C396.434 286.143 396.554 286.082 396.658 285.974C396.762 285.868 396.855 285.705 396.936 285.486L397.095 285.043L395.49 280.636H396.038L397.334 284.332H397.374L398.669 280.636H399.217L397.371 285.69C397.293 285.901 397.197 286.076 397.084 286.216C396.97 286.358 396.839 286.463 396.689 286.531C396.541 286.601 396.375 286.636 396.192 286.636ZM404.266 285H402.562V279.182H404.369C404.924 279.182 405.398 279.297 405.792 279.528C406.188 279.759 406.491 280.091 406.701 280.523C406.911 280.955 407.016 281.473 407.016 282.077C407.016 282.687 406.908 283.21 406.692 283.648C406.478 284.083 406.166 284.418 405.755 284.651C405.346 284.884 404.85 285 404.266 285ZM403.093 284.523H404.235C404.735 284.523 405.154 284.424 405.491 284.227C405.828 284.03 406.081 283.749 406.249 283.384C406.418 283.018 406.502 282.582 406.502 282.077C406.5 281.575 406.417 281.143 406.252 280.781C406.089 280.42 405.847 280.142 405.525 279.949C405.205 279.756 404.809 279.659 404.337 279.659H403.093V284.523ZM408.205 285V280.636H408.713V285H408.205ZM408.463 279.886C408.359 279.886 408.27 279.851 408.196 279.781C408.122 279.709 408.085 279.623 408.085 279.523C408.085 279.422 408.122 279.337 408.196 279.267C408.27 279.195 408.359 279.159 408.463 279.159C408.567 279.159 408.656 279.195 408.73 279.267C408.804 279.337 408.841 279.422 408.841 279.523C408.841 279.623 408.804 279.709 408.73 279.781C408.656 279.851 408.567 279.886 408.463 279.886ZM412.982 281.594L412.519 281.724C412.474 281.594 412.409 281.475 412.326 281.369C412.243 281.263 412.134 281.179 411.999 281.116C411.867 281.054 411.702 281.023 411.505 281.023C411.21 281.023 410.967 281.093 410.778 281.233C410.588 281.373 410.494 281.554 410.494 281.776C410.494 281.963 410.558 282.116 410.687 282.233C410.817 282.348 411.018 282.44 411.289 282.509L411.948 282.67C412.314 282.759 412.587 282.901 412.769 283.094C412.953 283.287 413.045 283.529 413.045 283.821C413.045 284.067 412.977 284.286 412.84 284.477C412.704 284.669 412.513 284.819 412.269 284.929C412.027 285.037 411.746 285.091 411.425 285.091C410.999 285.091 410.648 284.995 410.371 284.804C410.095 284.611 409.918 284.332 409.84 283.969L410.326 283.849C410.388 284.109 410.511 284.305 410.692 284.438C410.876 284.57 411.118 284.636 411.417 284.636C411.752 284.636 412.02 284.562 412.221 284.412C412.422 284.26 412.522 284.071 412.522 283.844C412.522 283.668 412.463 283.52 412.346 283.401C412.228 283.279 412.05 283.19 411.812 283.134L411.099 282.963C410.72 282.872 410.44 282.728 410.258 282.531C410.076 282.334 409.985 282.09 409.985 281.798C409.985 281.558 410.05 281.347 410.181 281.165C410.312 280.981 410.492 280.837 410.721 280.733C410.95 280.629 411.211 280.577 411.505 280.577C411.905 280.577 412.224 280.668 412.462 280.849C412.703 281.029 412.876 281.277 412.982 281.594ZM413.311 279.659V279.182H417.53V279.659H415.686V285H415.155V279.659H413.311ZM418.168 285V280.636H418.659V281.307H418.696C418.783 281.087 418.935 280.91 419.151 280.776C419.368 280.639 419.615 280.571 419.889 280.571C419.931 280.571 419.977 280.572 420.028 280.574C420.08 280.576 420.122 280.578 420.156 280.58V281.094C420.134 281.09 420.094 281.084 420.037 281.077C419.98 281.069 419.919 281.065 419.852 281.065C419.625 281.065 419.422 281.114 419.244 281.21C419.068 281.305 418.929 281.437 418.827 281.605C418.724 281.774 418.673 281.966 418.673 282.182V285H418.168ZM422.238 285.099C421.975 285.099 421.734 285.048 421.516 284.946C421.299 284.842 421.125 284.692 420.996 284.497C420.868 284.3 420.803 284.062 420.803 283.781C420.803 283.565 420.844 283.384 420.925 283.236C421.007 283.088 421.122 282.967 421.272 282.872C421.422 282.777 421.599 282.703 421.803 282.648C422.008 282.593 422.233 282.55 422.479 282.52C422.724 282.49 422.93 282.463 423.099 282.44C423.269 282.418 423.399 282.382 423.488 282.332C423.577 282.283 423.621 282.204 423.621 282.094V281.991C423.621 281.694 423.532 281.46 423.354 281.29C423.178 281.117 422.924 281.031 422.593 281.031C422.279 281.031 422.022 281.1 421.823 281.239C421.626 281.377 421.488 281.54 421.408 281.727L420.928 281.554C421.027 281.315 421.163 281.125 421.337 280.983C421.512 280.839 421.707 280.736 421.923 280.673C422.138 280.609 422.357 280.577 422.579 280.577C422.746 280.577 422.919 280.598 423.099 280.642C423.281 280.686 423.449 280.761 423.604 280.869C423.76 280.975 423.886 281.124 423.982 281.315C424.079 281.505 424.127 281.745 424.127 282.037V285H423.621V284.31H423.59C423.53 284.438 423.44 284.563 423.32 284.685C423.201 284.806 423.051 284.905 422.871 284.983C422.692 285.061 422.48 285.099 422.238 285.099ZM422.306 284.636C422.575 284.636 422.808 284.577 423.005 284.457C423.202 284.338 423.353 284.18 423.46 283.983C423.567 283.784 423.621 283.565 423.621 283.327V282.696C423.584 282.732 423.52 282.764 423.431 282.793C423.344 282.821 423.243 282.847 423.127 282.869C423.013 282.89 422.9 282.908 422.786 282.923C422.673 282.938 422.57 282.952 422.479 282.963C422.233 282.993 422.023 283.041 421.849 283.105C421.674 283.17 421.541 283.259 421.448 283.372C421.355 283.484 421.309 283.628 421.309 283.804C421.309 284.069 421.404 284.275 421.593 284.42C421.782 284.564 422.02 284.636 422.306 284.636ZM427.177 285.091C426.787 285.091 426.447 284.993 426.157 284.798C425.869 284.603 425.646 284.336 425.487 283.997C425.327 283.658 425.248 283.272 425.248 282.838C425.248 282.401 425.328 282.011 425.489 281.67C425.652 281.33 425.878 281.062 426.165 280.869C426.453 280.674 426.788 280.577 427.168 280.577C427.46 280.577 427.724 280.634 427.961 280.747C428.198 280.859 428.393 281.017 428.546 281.222C428.701 281.424 428.799 281.661 428.839 281.932H428.327C428.274 281.686 428.147 281.475 427.944 281.301C427.743 281.125 427.487 281.037 427.177 281.037C426.898 281.037 426.652 281.113 426.438 281.264C426.224 281.414 426.057 281.623 425.935 281.892C425.816 282.159 425.756 282.469 425.756 282.821C425.756 283.175 425.815 283.489 425.933 283.761C426.05 284.032 426.215 284.244 426.427 284.398C426.641 284.551 426.891 284.628 427.177 284.628C427.37 284.628 427.546 284.592 427.705 284.52C427.866 284.446 428.001 284.342 428.109 284.207C428.219 284.073 428.292 283.913 428.33 283.727H428.842C428.804 283.991 428.71 284.225 428.56 284.432C428.413 284.636 428.22 284.797 427.984 284.915C427.749 285.032 427.48 285.091 427.177 285.091ZM430.386 283.352L430.38 282.69H430.494L432.539 280.636H433.178L431.158 282.659L431.113 282.668L430.386 283.352ZM429.925 285V279.182H430.431V285H429.925ZM432.644 285L430.871 282.759L431.235 282.409L433.292 285H432.644Z" fill="white" fill-opacity="0.42"/>
    <!-- // -->
    <!-- * Background For Coding Time * -->
    <rect x="230" y="159" width="186" height="59" rx="10" fill="#202020ff" fill-opacity="0.25"/>
    <rect x="230.5" y="159.5" width="185" height="58" rx="9.5" stroke="#000000ff" stroke-opacity="0.50"/>

    <!-- * Coding Time Inject Text * -->
    <!-- <g filter="url(#filter0_d_5_348)">
        <path d="M249.617 199V195.787L257.124 188.836C257.763 188.218 258.298 187.662 258.731 187.167C259.17 186.673 259.503 186.189 259.73 185.715C259.956 185.235 260.07 184.716 260.07 184.16C260.07 183.542 259.929 183.01 259.647 182.564C259.366 182.111 258.981 181.764 258.494 181.524C258.007 181.277 257.454 181.153 256.836 181.153C256.191 181.153 255.628 181.283 255.147 181.544C254.666 181.805 254.296 182.179 254.035 182.667C253.774 183.154 253.643 183.734 253.643 184.407H249.411C249.411 183.027 249.723 181.829 250.348 180.813C250.973 179.797 251.848 179.011 252.974 178.455C254.1 177.899 255.398 177.621 256.867 177.621C258.377 177.621 259.692 177.888 260.811 178.424C261.937 178.953 262.812 179.687 263.437 180.628C264.062 181.568 264.374 182.646 264.374 183.862C264.374 184.658 264.216 185.444 263.901 186.22C263.592 186.996 263.039 187.857 262.243 188.805C261.446 189.745 260.324 190.875 258.875 192.193L255.796 195.21V195.354H264.652V199H249.617ZM276.153 199.463C274.382 199.457 272.858 199.021 271.581 198.156C270.31 197.29 269.332 196.038 268.646 194.397C267.966 192.756 267.629 190.782 267.636 188.475C267.636 186.175 267.976 184.215 268.656 182.595C269.342 180.975 270.321 179.742 271.591 178.898C272.868 178.046 274.389 177.621 276.153 177.621C277.917 177.621 279.435 178.046 280.705 178.898C281.982 179.749 282.964 180.985 283.65 182.605C284.337 184.219 284.677 186.175 284.67 188.475C284.67 190.789 284.326 192.766 283.64 194.407C282.96 196.048 281.985 197.301 280.715 198.166C279.445 199.031 277.924 199.463 276.153 199.463ZM276.153 195.766C277.361 195.766 278.326 195.159 279.047 193.944C279.768 192.728 280.125 190.906 280.118 188.475C280.118 186.875 279.953 185.544 279.623 184.479C279.301 183.415 278.841 182.615 278.244 182.08C277.653 181.544 276.956 181.277 276.153 181.277C274.951 181.277 273.99 181.877 273.269 183.079C272.549 184.28 272.185 186.079 272.178 188.475C272.178 190.095 272.339 191.448 272.662 192.533C272.991 193.611 273.455 194.421 274.052 194.963C274.649 195.499 275.35 195.766 276.153 195.766ZM287.53 195.293V191.781L296.335 177.909H299.363V182.77H297.571L292.02 191.554V191.719H304.532V195.293H287.53ZM297.653 199V194.222L297.736 192.667V177.909H301.917V199H297.653ZM316.396 177.909V199H311.937V182.142H311.813L306.983 185.169V181.215L312.205 177.909H316.396ZM325.837 189.855V199H321.45V177.909H325.714V185.973H325.899C326.256 185.039 326.833 184.308 327.629 183.779C328.425 183.244 329.424 182.976 330.626 182.976C331.724 182.976 332.682 183.216 333.499 183.697C334.323 184.17 334.961 184.854 335.415 185.746C335.874 186.632 336.101 187.692 336.094 188.928V199H331.707V189.711C331.714 188.736 331.467 187.977 330.966 187.435C330.471 186.893 329.778 186.621 328.885 186.621C328.288 186.621 327.759 186.748 327.299 187.002C326.846 187.257 326.489 187.627 326.228 188.115C325.974 188.595 325.844 189.175 325.837 189.855Z" fill="white"/>
    </g> -->
    <!-- Injected Coding Time (TOTAL_HOURS) -->
    <g filter="url(#filter0_d_5_348)">
        <text class="token-text" x="249" y="190" font-size="29" font-weight="800" fill="#FFFFFF" text-anchor="left" font-family="Inter, sans-serif">{{TOTAL_HOURS}}</text>
    </g>

    <!-- * "Coding" * -->
    <g filter="url(#filter1_d_5_348)">
        <path d="M368.441 187H367.506C367.437 186.652 367.311 186.33 367.128 186.036C366.949 185.737 366.724 185.477 366.452 185.255C366.181 185.033 365.872 184.861 365.528 184.738C365.183 184.615 364.81 184.554 364.409 184.554C363.766 184.554 363.179 184.721 362.649 185.056C362.122 185.391 361.699 185.883 361.381 186.533C361.066 187.179 360.909 187.971 360.909 188.909C360.909 189.854 361.066 190.649 361.381 191.295C361.699 191.942 362.122 192.432 362.649 192.767C363.179 193.098 363.766 193.264 364.409 193.264C364.81 193.264 365.183 193.203 365.528 193.08C365.872 192.958 366.181 192.787 366.452 192.568C366.724 192.346 366.949 192.086 367.128 191.788C367.311 191.489 367.437 191.166 367.506 190.818H368.441C368.358 191.286 368.202 191.721 367.974 192.126C367.748 192.527 367.46 192.878 367.109 193.18C366.761 193.481 366.36 193.717 365.905 193.886C365.451 194.055 364.953 194.139 364.409 194.139C363.554 194.139 362.795 193.925 362.132 193.498C361.469 193.067 360.949 192.46 360.571 191.678C360.196 190.896 360.009 189.973 360.009 188.909C360.009 187.845 360.196 186.922 360.571 186.14C360.949 185.358 361.469 184.753 362.132 184.325C362.795 183.894 363.554 183.679 364.409 183.679C364.953 183.679 365.451 183.763 365.905 183.933C366.36 184.098 366.761 184.334 367.109 184.638C367.46 184.94 367.748 185.291 367.974 185.692C368.202 186.094 368.358 186.529 368.441 187ZM373.409 194.159C372.749 194.159 372.166 193.992 371.659 193.657C371.155 193.322 370.761 192.86 370.476 192.27C370.191 191.677 370.048 190.992 370.048 190.217C370.048 189.434 370.191 188.747 370.476 188.153C370.761 187.557 371.155 187.093 371.659 186.761C372.166 186.427 372.749 186.259 373.409 186.259C374.068 186.259 374.65 186.427 375.154 186.761C375.658 187.096 376.052 187.56 376.337 188.153C376.625 188.747 376.77 189.434 376.77 190.217C376.77 190.992 376.627 191.677 376.342 192.27C376.057 192.86 375.661 193.322 375.154 193.657C374.65 193.992 374.068 194.159 373.409 194.159ZM373.409 193.349C373.939 193.349 374.388 193.206 374.756 192.921C375.124 192.636 375.402 192.257 375.591 191.783C375.784 191.309 375.88 190.787 375.88 190.217C375.88 189.647 375.784 189.123 375.591 188.646C375.402 188.168 375.124 187.786 374.756 187.497C374.388 187.209 373.939 187.065 373.409 187.065C372.882 187.065 372.433 187.209 372.062 187.497C371.694 187.786 371.414 188.168 371.221 188.646C371.032 189.123 370.938 189.647 370.938 190.217C370.938 190.787 371.032 191.309 371.221 191.783C371.414 192.257 371.694 192.636 372.062 192.921C372.429 193.206 372.879 193.349 373.409 193.349ZM381.462 194.159C380.835 194.159 380.287 193.993 379.816 193.662C379.345 193.33 378.977 192.868 378.712 192.275C378.45 191.682 378.32 190.991 378.32 190.202C378.32 189.416 378.45 188.728 378.712 188.138C378.977 187.545 379.347 187.085 379.821 186.756C380.295 186.425 380.847 186.259 381.476 186.259C381.94 186.259 382.327 186.342 382.635 186.508C382.943 186.67 383.19 186.872 383.376 187.114C383.561 187.356 383.705 187.592 383.808 187.82H383.888V183.818H384.778V194H383.913V192.583H383.808C383.705 192.815 383.56 193.054 383.371 193.299C383.182 193.541 382.931 193.745 382.62 193.911C382.312 194.076 381.926 194.159 381.462 194.159ZM381.566 193.349C382.06 193.349 382.481 193.214 382.829 192.946C383.177 192.674 383.442 192.301 383.624 191.827C383.81 191.35 383.903 190.803 383.903 190.187C383.903 189.577 383.811 189.038 383.629 188.571C383.447 188.1 383.182 187.732 382.834 187.467C382.486 187.199 382.063 187.065 381.566 187.065C381.056 187.065 380.625 187.204 380.273 187.482C379.925 187.757 379.66 188.13 379.478 188.601C379.299 189.071 379.209 189.6 379.209 190.187C379.209 190.78 379.301 191.315 379.483 191.793C379.665 192.27 379.93 192.649 380.278 192.931C380.63 193.21 381.059 193.349 381.566 193.349ZM387.308 194V186.364H388.198V194H387.308ZM387.761 185.051C387.578 185.051 387.422 184.99 387.293 184.867C387.164 184.741 387.099 184.59 387.099 184.415C387.099 184.239 387.164 184.09 387.293 183.967C387.422 183.841 387.578 183.778 387.761 183.778C387.943 183.778 388.099 183.841 388.228 183.967C388.357 184.09 388.422 184.239 388.422 184.415C388.422 184.59 388.357 184.741 388.228 184.867C388.099 184.99 387.943 185.051 387.761 185.051ZM391.423 189.227V194H390.538V186.364H391.399V187.562H391.478C391.657 187.171 391.935 186.857 392.313 186.622C392.694 186.384 393.165 186.264 393.725 186.264C394.239 186.264 394.69 186.372 395.078 186.587C395.469 186.799 395.772 187.113 395.987 187.527C396.206 187.941 396.315 188.45 396.315 189.053V194H395.43V189.108C395.43 188.482 395.255 187.986 394.903 187.621C394.555 187.257 394.088 187.075 393.502 187.075C393.1 187.075 392.744 187.161 392.433 187.333C392.121 187.505 391.874 187.754 391.692 188.079C391.513 188.4 391.423 188.783 391.423 189.227ZM401.559 197.023C401.039 197.023 400.583 196.955 400.192 196.819C399.801 196.686 399.471 196.504 399.203 196.272C398.934 196.04 398.725 195.78 398.576 195.491L399.302 195.014C399.411 195.206 399.557 195.395 399.74 195.581C399.925 195.767 400.166 195.921 400.46 196.043C400.759 196.166 401.125 196.227 401.559 196.227C402.235 196.227 402.781 196.058 403.195 195.72C403.612 195.382 403.821 194.857 403.821 194.144V192.424H403.742C403.639 192.656 403.492 192.888 403.299 193.12C403.107 193.349 402.855 193.539 402.544 193.692C402.235 193.844 401.853 193.92 401.395 193.92C400.785 193.92 400.243 193.77 399.769 193.468C399.299 193.166 398.928 192.736 398.656 192.175C398.387 191.612 398.253 190.941 398.253 190.162C398.253 189.39 398.384 188.71 398.646 188.124C398.911 187.537 399.281 187.08 399.755 186.751C400.228 186.423 400.78 186.259 401.41 186.259C401.877 186.259 402.265 186.342 402.573 186.508C402.882 186.67 403.129 186.872 403.314 187.114C403.503 187.356 403.651 187.592 403.757 187.82H403.846V186.364H404.711V194.199C404.711 194.845 404.574 195.377 404.299 195.795C404.023 196.212 403.649 196.521 403.175 196.719C402.701 196.922 402.162 197.023 401.559 197.023ZM401.5 193.11C401.99 193.11 402.409 192.992 402.757 192.757C403.105 192.518 403.372 192.177 403.558 191.733C403.743 191.289 403.836 190.76 403.836 190.147C403.836 189.55 403.745 189.022 403.563 188.561C403.38 188.097 403.115 187.732 402.767 187.467C402.423 187.199 402 187.065 401.5 187.065C400.989 187.065 400.558 187.202 400.207 187.477C399.856 187.752 399.59 188.124 399.411 188.591C399.233 189.055 399.143 189.574 399.143 190.147C399.143 190.73 399.234 191.246 399.416 191.693C399.599 192.137 399.866 192.485 400.217 192.737C400.568 192.986 400.996 193.11 401.5 193.11Z" fill="white"/>
    </g>
    <!-- // -->
    <!-- * Background For Ranking * -->
    <rect x="230" y="75" width="186" height="59" rx="10" fill="#53ceffff" fill-opacity="0.25"/>
    <rect x="230.5" y="75.5" width="185" height="58" rx="9.5" stroke="#53baffff" stroke-opacity="0.50"/>

    <!-- * Ranking Inject Text * -->
    <!-- <g filter="url(#filter2_d_5_348)">
        <path d="M282.865 93.9091V115H278.406V98.1417H278.282L273.452 101.169V97.2148L278.673 93.9091H282.865ZM301.08 103.692L297.064 103.94C296.995 103.596 296.847 103.287 296.621 103.013C296.394 102.731 296.096 102.508 295.725 102.343C295.361 102.172 294.925 102.086 294.417 102.086C293.737 102.086 293.164 102.23 292.697 102.518C292.23 102.8 291.997 103.178 291.997 103.651C291.997 104.029 292.148 104.348 292.45 104.609C292.752 104.87 293.27 105.079 294.005 105.237L296.868 105.814C298.406 106.13 299.552 106.638 300.308 107.338C301.063 108.038 301.44 108.958 301.44 110.098C301.44 111.135 301.135 112.044 300.524 112.827C299.92 113.61 299.089 114.221 298.032 114.66C296.981 115.093 295.769 115.309 294.396 115.309C292.302 115.309 290.634 114.873 289.391 114.001C288.156 113.122 287.431 111.928 287.218 110.417L291.533 110.191C291.664 110.829 291.98 111.317 292.481 111.653C292.982 111.983 293.624 112.147 294.407 112.147C295.176 112.147 295.794 112 296.26 111.705C296.734 111.402 296.974 111.015 296.981 110.541C296.974 110.143 296.806 109.817 296.477 109.562C296.147 109.302 295.639 109.103 294.952 108.965L292.213 108.419C290.668 108.11 289.518 107.575 288.763 106.813C288.015 106.051 287.641 105.079 287.641 103.898C287.641 102.882 287.915 102.007 288.465 101.272C289.021 100.538 289.8 99.9714 290.802 99.5732C291.812 99.175 292.992 98.9759 294.345 98.9759C296.343 98.9759 297.915 99.3981 299.062 100.243C300.215 101.087 300.888 102.237 301.08 103.692ZM312.617 99.1818V102.477H303.091V99.1818H312.617ZM305.253 95.392H309.64V110.139C309.64 110.544 309.702 110.86 309.826 111.087C309.949 111.306 310.121 111.461 310.341 111.55C310.567 111.639 310.828 111.684 311.123 111.684C311.329 111.684 311.535 111.667 311.741 111.632C311.947 111.591 312.105 111.56 312.215 111.54L312.905 114.804C312.685 114.873 312.376 114.952 311.978 115.041C311.58 115.137 311.096 115.196 310.526 115.216C309.469 115.257 308.542 115.117 307.746 114.794C306.956 114.471 306.342 113.97 305.902 113.29C305.463 112.611 305.247 111.753 305.253 110.716V95.392Z" fill="white"/>
    </g> -->
    <!-- Injected Ranking (# position) -->
    <g filter="url(#filter2_d_5_348)">
        <text class="token-text" x="249" y="106" font-size="29" font-weight="800" fill="#FFFFFF" text-anchor="left" font-family="Inter, sans-serif" box-shadow="0 0 5px rgba(0, 0, 0, 1)">{{RANKING}}</text>
    </g>

    <!-- * "Ranking" * -->
    <g filter="url(#filter3_d_5_348)">
        <path d="M355.43 110V99.8182H358.717C359.439 99.8182 360.042 99.9491 360.526 100.211C361.013 100.469 361.38 100.829 361.625 101.29C361.874 101.747 361.998 102.272 361.998 102.866C361.998 103.459 361.874 103.983 361.625 104.437C361.38 104.891 361.015 105.246 360.531 105.501C360.047 105.756 359.447 105.884 358.732 105.884H355.933V105.033H358.707C359.237 105.033 359.678 104.946 360.029 104.77C360.384 104.594 360.647 104.344 360.82 104.019C360.995 103.694 361.083 103.31 361.083 102.866C361.083 102.422 360.995 102.034 360.82 101.702C360.644 101.368 360.379 101.109 360.024 100.927C359.673 100.745 359.229 100.653 358.692 100.653H356.36V110H355.43ZM359.92 105.406L362.425 110H361.352L358.871 105.406H359.92ZM366.211 110.174C365.751 110.174 365.33 110.085 364.949 109.906C364.567 109.723 364.264 109.461 364.039 109.12C363.813 108.775 363.701 108.358 363.701 107.867C363.701 107.489 363.772 107.171 363.914 106.913C364.057 106.654 364.259 106.442 364.521 106.276C364.783 106.111 365.093 105.98 365.451 105.884C365.809 105.787 366.203 105.713 366.634 105.66C367.061 105.607 367.423 105.56 367.718 105.521C368.016 105.481 368.243 105.418 368.399 105.332C368.555 105.246 368.632 105.106 368.632 104.914V104.735C368.632 104.215 368.477 103.805 368.165 103.507C367.857 103.205 367.413 103.055 366.833 103.055C366.283 103.055 365.833 103.176 365.485 103.418C365.141 103.66 364.899 103.945 364.76 104.273L363.919 103.969C364.092 103.552 364.33 103.219 364.635 102.97C364.94 102.718 365.282 102.538 365.659 102.428C366.037 102.316 366.42 102.259 366.808 102.259C367.1 102.259 367.403 102.297 367.718 102.374C368.036 102.45 368.331 102.582 368.603 102.771C368.874 102.957 369.095 103.217 369.264 103.552C369.433 103.883 369.517 104.304 369.517 104.815V110H368.632V108.792H368.578C368.472 109.017 368.314 109.236 368.105 109.448C367.897 109.66 367.635 109.834 367.32 109.97C367.005 110.106 366.636 110.174 366.211 110.174ZM366.331 109.364C366.801 109.364 367.209 109.259 367.554 109.05C367.898 108.842 368.163 108.565 368.349 108.22C368.538 107.872 368.632 107.489 368.632 107.072V105.968C368.566 106.031 368.455 106.087 368.299 106.137C368.147 106.187 367.97 106.232 367.767 106.271C367.569 106.308 367.37 106.339 367.171 106.366C366.972 106.392 366.793 106.415 366.634 106.435C366.203 106.488 365.835 106.571 365.53 106.684C365.225 106.797 364.992 106.952 364.829 107.151C364.667 107.347 364.586 107.599 364.586 107.907C364.586 108.371 364.751 108.731 365.083 108.986C365.414 109.238 365.83 109.364 366.331 109.364ZM372.756 105.227V110H371.871V102.364H372.732V103.562H372.811C372.99 103.171 373.268 102.857 373.646 102.622C374.027 102.384 374.498 102.264 375.058 102.264C375.572 102.264 376.023 102.372 376.411 102.587C376.802 102.799 377.105 103.113 377.32 103.527C377.539 103.941 377.648 104.45 377.648 105.053V110H376.763V105.108C376.763 104.482 376.588 103.986 376.237 103.621C375.888 103.257 375.421 103.075 374.835 103.075C374.433 103.075 374.077 103.161 373.766 103.333C373.454 103.505 373.207 103.754 373.025 104.079C372.846 104.4 372.756 104.783 372.756 105.227ZM380.784 107.116L380.774 105.958H380.973L384.553 102.364H385.671L382.137 105.903L382.057 105.918L380.784 107.116ZM379.979 110V99.8182H380.864V110H379.979ZM384.737 110L381.634 106.077L382.271 105.466L385.87 110H384.737ZM387.344 110V102.364H388.234V110H387.344ZM387.797 101.051C387.614 101.051 387.459 100.99 387.329 100.867C387.2 100.741 387.135 100.59 387.135 100.415C387.135 100.239 387.2 100.09 387.329 99.9673C387.459 99.8414 387.614 99.7784 387.797 99.7784C387.979 99.7784 388.135 99.8414 388.264 99.9673C388.393 100.09 388.458 100.239 388.458 100.415C388.458 100.59 388.393 100.741 388.264 100.867C388.135 100.99 387.979 101.051 387.797 101.051ZM391.46 105.227V110H390.575V102.364H391.435V103.562H391.514C391.693 103.171 391.972 102.857 392.349 102.622C392.731 102.384 393.201 102.264 393.761 102.264C394.275 102.264 394.726 102.372 395.114 102.587C395.505 102.799 395.808 103.113 396.023 103.527C396.242 103.941 396.352 104.45 396.352 105.053V110H395.467V105.108C395.467 104.482 395.291 103.986 394.94 103.621C394.592 103.257 394.124 103.075 393.538 103.075C393.137 103.075 392.78 103.161 392.469 103.333C392.157 103.505 391.91 103.754 391.728 104.079C391.549 104.4 391.46 104.783 391.46 105.227ZM401.595 113.023C401.075 113.023 400.619 112.955 400.228 112.819C399.837 112.686 399.507 112.504 399.239 112.272C398.97 112.04 398.762 111.78 398.612 111.491L399.338 111.014C399.448 111.206 399.593 111.395 399.776 111.581C399.961 111.767 400.202 111.921 400.497 112.043C400.795 112.166 401.161 112.227 401.595 112.227C402.271 112.227 402.817 112.058 403.231 111.72C403.649 111.382 403.857 110.857 403.857 110.144V108.424H403.778C403.675 108.656 403.528 108.888 403.335 109.12C403.143 109.349 402.891 109.539 402.58 109.692C402.271 109.844 401.889 109.92 401.431 109.92C400.821 109.92 400.28 109.77 399.806 109.468C399.335 109.166 398.964 108.736 398.692 108.175C398.423 107.612 398.289 106.941 398.289 106.162C398.289 105.39 398.42 104.71 398.682 104.124C398.947 103.537 399.317 103.08 399.791 102.751C400.265 102.423 400.816 102.259 401.446 102.259C401.914 102.259 402.301 102.342 402.61 102.508C402.918 102.67 403.165 102.872 403.35 103.114C403.539 103.356 403.687 103.592 403.793 103.82H403.882V102.364H404.747V110.199C404.747 110.845 404.61 111.377 404.335 111.795C404.06 112.212 403.685 112.521 403.211 112.719C402.737 112.922 402.199 113.023 401.595 113.023ZM401.536 109.11C402.026 109.11 402.445 108.992 402.794 108.757C403.142 108.518 403.408 108.177 403.594 107.733C403.78 107.289 403.872 106.76 403.872 106.147C403.872 105.55 403.781 105.022 403.599 104.561C403.417 104.097 403.151 103.732 402.803 103.467C402.459 103.199 402.036 103.065 401.536 103.065C401.025 103.065 400.594 103.202 400.243 103.477C399.892 103.752 399.627 104.124 399.448 104.591C399.269 105.055 399.179 105.574 399.179 106.147C399.179 106.73 399.27 107.246 399.453 107.693C399.635 108.137 399.902 108.485 400.253 108.737C400.604 108.986 401.032 109.11 401.536 109.11Z" fill="white"/>
    </g>

    <!-- // -->
    <!-- * Profile Picture Circle Border * -->
    <circle cx="112" cy="181" r="96" fill="url(#pattern0_5_348)"/>
    <circle cx="112" cy="181" r="95.5" stroke="black" stroke-opacity="0.3"/>

    <!-- * User Display Name Inject Text * -->
    <!-- <g filter="url(#filter4_d_5_348)">
        <path d="M91.1761 32.9091H97.2557V53.1932C97.2557 55.0682 96.8343 56.697 95.9915 58.0795C95.1581 59.4621 93.9981 60.5275 92.5114 61.2756C91.0246 62.0237 89.2964 62.3977 87.3267 62.3977C85.5748 62.3977 83.9839 62.09 82.554 61.4744C81.1335 60.8494 80.0066 59.9025 79.1733 58.6335C78.34 57.3551 77.928 55.75 77.9375 53.8182H84.0597C84.0786 54.5852 84.2348 55.2434 84.5284 55.7926C84.8314 56.3324 85.2434 56.7491 85.7642 57.0426C86.2945 57.3267 86.9195 57.4688 87.6392 57.4688C88.3968 57.4688 89.036 57.3078 89.5568 56.9858C90.0871 56.6544 90.4896 56.1714 90.7642 55.5369C91.0388 54.9025 91.1761 54.1212 91.1761 53.1932V32.9091ZM108.449 62.4119C107.057 62.4119 105.816 62.1705 104.727 61.6875C103.638 61.1951 102.777 60.4706 102.142 59.5142C101.517 58.5483 101.205 57.3456 101.205 55.9062C101.205 54.6941 101.427 53.6761 101.872 52.8523C102.317 52.0284 102.923 51.3655 103.69 50.8636C104.457 50.3617 105.329 49.983 106.304 49.7273C107.289 49.4716 108.321 49.2917 109.401 49.1875C110.67 49.0549 111.692 48.9318 112.469 48.8182C113.245 48.6951 113.809 48.5152 114.159 48.2784C114.509 48.0417 114.685 47.6913 114.685 47.2273V47.142C114.685 46.2424 114.401 45.5464 113.832 45.054C113.274 44.5616 112.478 44.3153 111.446 44.3153C110.357 44.3153 109.491 44.5568 108.847 45.0398C108.203 45.5133 107.777 46.1098 107.568 46.8295L101.972 46.375C102.256 45.0492 102.814 43.9034 103.648 42.9375C104.481 41.9621 105.556 41.214 106.872 40.6932C108.198 40.1629 109.732 39.8977 111.474 39.8977C112.687 39.8977 113.847 40.0398 114.955 40.3239C116.072 40.608 117.062 41.0483 117.923 41.6449C118.795 42.2415 119.481 43.0085 119.983 43.946C120.485 44.8741 120.736 45.9867 120.736 47.2841V62H114.997V58.9744H114.827C114.476 59.6562 114.008 60.2576 113.42 60.7784C112.833 61.2898 112.128 61.6922 111.304 61.9858C110.48 62.2699 109.528 62.4119 108.449 62.4119ZM110.182 58.2358C111.072 58.2358 111.858 58.0606 112.54 57.7102C113.222 57.3504 113.757 56.8674 114.145 56.2614C114.533 55.6553 114.727 54.9687 114.727 54.2017V51.8864C114.538 52.0095 114.277 52.1231 113.946 52.2273C113.624 52.322 113.259 52.4119 112.852 52.4972C112.445 52.5729 112.038 52.6439 111.631 52.7102C111.223 52.767 110.854 52.8191 110.523 52.8665C109.813 52.9706 109.192 53.1364 108.662 53.3636C108.132 53.5909 107.72 53.8987 107.426 54.2869C107.133 54.6657 106.986 55.1392 106.986 55.7074C106.986 56.5312 107.284 57.161 107.881 57.5966C108.487 58.0227 109.254 58.2358 110.182 58.2358ZM128.385 70.1818C127.618 70.1818 126.898 70.1203 126.226 69.9972C125.563 69.8835 125.014 69.7367 124.578 69.5568L125.942 65.0398C126.652 65.2576 127.291 65.3759 127.859 65.3949C128.437 65.4138 128.934 65.2813 129.351 64.9972C129.777 64.7131 130.123 64.2301 130.388 63.5483L130.743 62.625L122.916 40.1818H129.28L133.797 56.2045H134.024L138.584 40.1818H144.99L136.51 64.358C136.103 65.5322 135.549 66.5549 134.848 67.4261C134.157 68.3068 133.281 68.9839 132.22 69.4574C131.16 69.9403 129.881 70.1818 128.385 70.1818Z" fill="white"/>
    </g> -->
    <!-- Injected Display Name -->
    <g filter="url(#filter4_d_5_348)">
        <text class="token-text" x="15" y="45" font-size="40" font-weight="900" fill="#FFFFFF" text-anchor="left" font-family="Inter, sans-serif">{{DISPLAY_NAME}}</text>
    </g>
    <!-- // -->
    <defs>
        <!-- // -->
        <!-- * Total Time Styles * -->
        <filter id="filter0_d_5_348" x="245.411" y="173.621" width="100" height="29.8425" filterUnits="userSpaceOnUse" color-interpolation-filters="sRGB">
            <feFlood flood-opacity="0" result="BackgroundImageFix"/>
            <feColorMatrix in="SourceAlpha" type="matrix" values="0 0 0 0 0 0 0 0 0 0 0 0 0 0 0 0 0 0 127 0" result="hardAlpha"/>
            <feOffset/>
            <feGaussianBlur stdDeviation="2"/>
            <feComposite in2="hardAlpha" operator="out"/>
            <feColorMatrix type="matrix" values="0 0 0 0 0 0 0 0 0 0 0 0 0 0 0 0 0 0 0.6 0"/>
            <feBlend mode="normal" in2="BackgroundImageFix" result="effect1_dropShadow_5_348"/>
            <feBlend mode="normal" in="SourceGraphic" in2="effect1_dropShadow_5_348" result="shape"/>
        </filter>
        <!-- // -->
        <filter id="filter1_d_5_348" x="356.009" y="179.679" width="52.7021" height="21.3438" filterUnits="userSpaceOnUse" color-interpolation-filters="sRGB">
            <feFlood flood-opacity="0" result="BackgroundImageFix"/>
            <feColorMatrix in="SourceAlpha" type="matrix" values="0 0 0 0 0 0 0 0 0 0 0 0 0 0 0 0 0 0 127 0" result="hardAlpha"/>
            <feOffset/>
            <feGaussianBlur stdDeviation="2"/>
            <feComposite in2="hardAlpha" operator="out"/>
            <feColorMatrix type="matrix" values="0 0 0 0 0 0 0 0 0 0 0 0 0 0 0 0 0 0 0.3 0"/>
            <feBlend mode="normal" in2="BackgroundImageFix" result="effect1_dropShadow_5_348"/>
            <feBlend mode="normal" in="SourceGraphic" in2="effect1_dropShadow_5_348" result="shape"/>
        </filter>
        <!-- // -->
        <!-- * Ranking Text Styles *  -->
        <filter id="filter2_d_5_348" x="245" y="89.9091" width="100" height="29.3999" filterUnits="userSpaceOnUse" color-interpolation-filters="sRGB">
            <feFlood flood-opacity="0" result="BackgroundImageFix"/>
            <feColorMatrix in="SourceAlpha" type="matrix" values="0 0 0 0 0 0 0 0 0 0 0 0 0 0 0 0 0 0 127 0" result="hardAlpha"/>
            <feOffset/>
            <feGaussianBlur stdDeviation="2"/>
            <feComposite in2="hardAlpha" operator="out"/>
            <feColorMatrix type="matrix" values="0 0 0 0 0 0 0 0 0 0 0 0 0 0 0 0 0 0 0.6 0"/>
            <feBlend mode="normal" in2="BackgroundImageFix" result="effect1_dropShadow_5_348"/>
            <feBlend mode="normal" in="SourceGraphic" in2="effect1_dropShadow_5_348" result="shape"/>
        </filter>
        <!-- // -->
        <filter id="filter3_d_5_348" x="351.43" y="95.7784" width="57.3169" height="21.2443" filterUnits="userSpaceOnUse" color-interpolation-filters="sRGB">
            <feFlood flood-opacity="0" result="BackgroundImageFix"/>
            <feColorMatrix in="SourceAlpha" type="matrix" values="0 0 0 0 0 0 0 0 0 0 0 0 0 0 0 0 0 0 127 0" result="hardAlpha"/>
            <feOffset/>
            <feGaussianBlur stdDeviation="2"/>
            <feComposite in2="hardAlpha" operator="out"/>
            <feColorMatrix type="matrix" values="0 0 0 0 0 0 0 0 0 0 0 0 0 0 0 0 0 0 0.3 0"/>
            <feBlend mode="normal" in2="BackgroundImageFix" result="effect1_dropShadow_5_348"/>
            <feBlend mode="normal" in="SourceGraphic" in2="effect1_dropShadow_5_348" result="shape"/>
        </filter>
        <pattern id="pattern0_5_348" patternContentUnits="objectBoundingBox" width="1" height="1">
            <use xlink:href="#image0_5_387" transform="translate(-0.0040404) scale(0.0020202)"/>
        </pattern>
        <!-- // -->
        <!-- * Display Name Styles * -->
        <filter id="filter4_d_5_348" x="10" y="25" width="430" height="50" filterUnits="userSpaceOnUse" color-interpolation-filters="sRGB">
            <feFlood flood-opacity="0" result="BackgroundImageFix"/>
            <feColorMatrix in="SourceAlpha" type="matrix" values="0 0 0 0 0 0 0 0 0 0 0 0 0 0 0 0 0 0 127 0" result="hardAlpha"/>
            <feOffset/>
            <feGaussianBlur stdDeviation="2"/>
            <feComposite in2="hardAlpha" operator="out"/>
            <feColorMatrix type="matrix" values="0 0 0 0 0 0 0 0 0 0 0 0 0 0 0 0 0 0 0.6 0"/>
            <feBlend mode="normal" in2="BackgroundImageFix" result="effect1_dropShadow_5_348"/>
            <feBlend mode="normal" in="SourceGraphic" in2="effect1_dropShadow_5_348" result="shape"/>
        </filter>
        <!-- // -->
        <image id="image0_5_387" width="499" height="495" preserveAspectRatio="none" xlink:href="{{AVATAR_DATA_URL}}" href="{{AVATAR_DATA_URL}}" />
        <style><![CDATA[
            .token-text { font-family: 'Inter', 'Segoe UI', Arial, sans-serif; dominant-baseline: middle; }
        ]]>        </style>
    </defs>
</svg>
