<svg width="443" height="293" viewBox="0 0 443 293" fill="none"
    xmlns="http://www.w3.org/2000/svg"
    xmlns:xlink="http://www.w3.org/1999/xlink">
    <rect width="443" height="293" rx="10" fill="url(#paint0_linear_5_387)" fill-opacity="0.24"/>
    <rect x="0.5" y="0.5" width="442" height="292" rx="9.5" stroke="white" stroke-opacity="0.21"/>
    <path d="M355.773 285V279.182H357.651C358.063 279.182 358.408 279.261 358.685 279.42C358.963 279.578 359.172 279.792 359.312 280.062C359.455 280.333 359.526 280.638 359.526 280.977C359.526 281.316 359.455 281.622 359.315 281.895C359.175 282.166 358.967 282.381 358.69 282.54C358.414 282.697 358.07 282.776 357.659 282.776H356.182V282.298H357.645C357.95 282.298 358.203 282.241 358.403 282.128C358.604 282.012 358.754 281.855 358.852 281.656C358.953 281.457 359.003 281.231 359.003 280.977C359.003 280.723 358.953 280.497 358.852 280.298C358.754 280.099 358.603 279.943 358.401 279.83C358.2 279.716 357.945 279.659 357.636 279.659H356.304V285H355.773ZM362.317 285.091C361.94 285.091 361.607 284.995 361.317 284.804C361.029 284.613 360.804 284.348 360.641 284.011C360.478 283.672 360.396 283.281 360.396 282.838C360.396 282.391 360.478 281.998 360.641 281.659C360.804 281.318 361.029 281.053 361.317 280.864C361.607 280.672 361.94 280.577 362.317 280.577C362.694 280.577 363.026 280.672 363.314 280.864C363.602 281.055 363.827 281.32 363.99 281.659C364.155 281.998 364.237 282.391 364.237 282.838C364.237 283.281 364.156 283.672 363.993 284.011C363.83 284.348 363.604 284.613 363.314 284.804C363.026 284.995 362.694 285.091 362.317 285.091ZM362.317 284.628C362.62 284.628 362.876 284.546 363.087 284.384C363.297 284.221 363.456 284.004 363.564 283.733C363.674 283.462 363.729 283.164 363.729 282.838C363.729 282.512 363.674 282.213 363.564 281.94C363.456 281.668 363.297 281.449 363.087 281.284C362.876 281.119 362.62 281.037 362.317 281.037C362.016 281.037 361.759 281.119 361.547 281.284C361.337 281.449 361.177 281.668 361.067 281.94C360.959 282.213 360.905 282.512 360.905 282.838C360.905 283.164 360.959 283.462 361.067 283.733C361.177 284.004 361.337 284.221 361.547 284.384C361.757 284.546 362.014 284.628 362.317 284.628ZM366.168 285L364.849 280.636H365.384L366.418 284.236H366.455L367.486 280.636H368.023L369.045 284.227H369.085L370.119 280.636H370.653L369.335 285H368.812L367.778 281.423H367.724L366.69 285H366.168ZM373.252 285.091C372.845 285.091 372.493 284.996 372.195 284.807C371.898 284.616 371.668 284.351 371.505 284.014C371.344 283.675 371.263 283.285 371.263 282.844C371.263 282.404 371.344 282.014 371.505 281.673C371.668 281.33 371.892 281.062 372.178 280.869C372.466 280.674 372.799 280.577 373.175 280.577C373.412 280.577 373.64 280.62 373.86 280.707C374.08 280.793 374.277 280.924 374.451 281.102C374.627 281.278 374.766 281.501 374.869 281.77C374.971 282.037 375.022 282.353 375.022 282.719V282.969H371.613V282.523H374.505C374.505 282.242 374.448 281.991 374.335 281.767C374.223 281.542 374.067 281.364 373.866 281.233C373.667 281.102 373.437 281.037 373.175 281.037C372.899 281.037 372.656 281.111 372.445 281.259C372.235 281.406 372.07 281.601 371.951 281.844C371.834 282.086 371.774 282.351 371.772 282.639V282.906C371.772 283.253 371.832 283.556 371.951 283.815C372.072 284.073 372.244 284.273 372.465 284.415C372.687 284.557 372.949 284.628 373.252 284.628C373.459 284.628 373.639 284.596 373.795 284.531C373.952 284.467 374.084 284.381 374.19 284.273C374.298 284.163 374.379 284.043 374.434 283.912L374.914 284.068C374.848 284.252 374.739 284.421 374.587 284.577C374.438 284.732 374.25 284.857 374.025 284.952C373.801 285.045 373.544 285.091 373.252 285.091ZM376.136 285V280.636H376.628V281.307H376.665C376.752 281.087 376.903 280.91 377.119 280.776C377.337 280.639 377.583 280.571 377.858 280.571C377.9 280.571 377.946 280.572 377.997 280.574C378.048 280.576 378.091 280.578 378.125 280.58V281.094C378.102 281.09 378.063 281.084 378.006 281.077C377.949 281.069 377.887 281.065 377.821 281.065C377.594 281.065 377.391 281.114 377.213 281.21C377.037 281.305 376.898 281.437 376.795 281.605C376.693 281.774 376.642 281.966 376.642 282.182V285H376.136ZM380.619 285.091C380.212 285.091 379.86 284.996 379.562 284.807C379.265 284.616 379.035 284.351 378.872 284.014C378.711 283.675 378.631 283.285 378.631 282.844C378.631 282.404 378.711 282.014 378.872 281.673C379.035 281.33 379.259 281.062 379.545 280.869C379.833 280.674 380.166 280.577 380.543 280.577C380.779 280.577 381.008 280.62 381.227 280.707C381.447 280.793 381.644 280.924 381.818 281.102C381.994 281.278 382.134 281.501 382.236 281.77C382.338 282.037 382.389 282.353 382.389 282.719V282.969H378.98V282.523H381.872C381.872 282.242 381.815 281.991 381.702 281.767C381.59 281.542 381.434 281.364 381.233 281.233C381.034 281.102 380.804 281.037 380.543 281.037C380.266 281.037 380.023 281.111 379.812 281.259C379.602 281.406 379.438 281.601 379.318 281.844C379.201 282.086 379.141 282.351 379.139 282.639V282.906C379.139 283.253 379.199 283.556 379.318 283.815C379.439 284.073 379.611 284.273 379.832 284.415C380.054 284.557 380.316 284.628 380.619 284.628C380.826 284.628 381.007 284.596 381.162 284.531C381.319 284.467 381.451 284.381 381.557 284.273C381.665 284.163 381.746 284.043 381.801 283.912L382.281 284.068C382.215 284.252 382.106 284.421 381.955 284.577C381.805 284.732 381.617 284.857 381.392 284.952C381.169 285.045 380.911 285.091 380.619 285.091ZM385.075 285.091C384.717 285.091 384.403 284.996 384.134 284.807C383.865 284.617 383.655 284.353 383.504 284.014C383.354 283.675 383.279 283.28 383.279 282.83C383.279 282.381 383.354 281.988 383.504 281.651C383.655 281.312 383.866 281.048 384.137 280.861C384.408 280.671 384.723 280.577 385.083 280.577C385.348 280.577 385.569 280.624 385.745 280.719C385.921 280.812 386.062 280.927 386.168 281.065C386.274 281.204 386.357 281.338 386.415 281.469H386.461V279.182H386.969V285H386.475V284.19H386.415C386.357 284.323 386.273 284.459 386.165 284.599C386.058 284.738 385.915 284.854 385.737 284.949C385.56 285.044 385.34 285.091 385.075 285.091ZM385.134 284.628C385.416 284.628 385.657 284.551 385.856 284.398C386.055 284.242 386.206 284.029 386.31 283.759C386.416 283.486 386.469 283.173 386.469 282.821C386.469 282.473 386.417 282.165 386.313 281.898C386.209 281.629 386.058 281.419 385.859 281.267C385.66 281.114 385.418 281.037 385.134 281.037C384.843 281.037 384.596 281.116 384.396 281.276C384.197 281.433 384.045 281.646 383.941 281.915C383.839 282.184 383.788 282.486 383.788 282.821C383.788 283.16 383.84 283.466 383.944 283.739C384.048 284.011 384.2 284.228 384.398 284.389C384.599 284.548 384.844 284.628 385.134 284.628ZM390.765 285V279.182H392.728C393.107 279.182 393.422 279.248 393.674 279.381C393.928 279.513 394.118 279.694 394.245 279.923C394.372 280.152 394.435 280.413 394.435 280.705C394.435 280.947 394.395 281.154 394.313 281.327C394.232 281.499 394.121 281.638 393.981 281.744C393.841 281.85 393.684 281.927 393.512 281.974V282.02C393.7 282.033 393.881 282.099 394.058 282.219C394.234 282.336 394.379 282.501 394.492 282.713C394.606 282.925 394.663 283.179 394.663 283.474C394.663 283.768 394.597 284.03 394.467 284.261C394.336 284.491 394.135 284.671 393.864 284.804C393.595 284.935 393.253 285 392.836 285H390.765ZM391.296 284.523H392.836C393.285 284.523 393.616 284.423 393.83 284.224C394.046 284.026 394.154 283.776 394.154 283.474C394.154 283.253 394.1 283.052 393.992 282.872C393.886 282.69 393.736 282.546 393.54 282.44C393.347 282.334 393.12 282.281 392.859 282.281H391.296V284.523ZM391.296 281.81H392.776C393.005 281.81 393.206 281.762 393.379 281.668C393.551 281.573 393.685 281.442 393.782 281.276C393.879 281.109 393.927 280.919 393.927 280.705C393.927 280.396 393.826 280.145 393.626 279.952C393.425 279.757 393.126 279.659 392.728 279.659H391.296V281.81ZM396.192 286.636C396.091 286.636 395.998 286.627 395.911 286.608C395.823 286.589 395.754 286.568 395.703 286.545L395.839 286.099C396.012 286.152 396.165 286.171 396.3 286.156C396.434 286.143 396.554 286.082 396.658 285.974C396.762 285.868 396.855 285.705 396.936 285.486L397.095 285.043L395.49 280.636H396.038L397.334 284.332H397.374L398.669 280.636H399.217L397.371 285.69C397.293 285.901 397.197 286.076 397.084 286.216C396.97 286.358 396.839 286.463 396.689 286.531C396.541 286.601 396.375 286.636 396.192 286.636ZM404.266 285H402.562V279.182H404.369C404.924 279.182 405.398 279.297 405.792 279.528C406.188 279.759 406.491 280.091 406.701 280.523C406.911 280.955 407.016 281.473 407.016 282.077C407.016 282.687 406.908 283.21 406.692 283.648C406.478 284.083 406.166 284.418 405.755 284.651C405.346 284.884 404.85 285 404.266 285ZM403.093 284.523H404.235C404.735 284.523 405.154 284.424 405.491 284.227C405.828 284.03 406.081 283.749 406.249 283.384C406.418 283.018 406.502 282.582 406.502 282.077C406.5 281.575 406.417 281.143 406.252 280.781C406.089 280.42 405.847 280.142 405.525 279.949C405.205 279.756 404.809 279.659 404.337 279.659H403.093V284.523ZM408.205 285V280.636H408.713V285H408.205ZM408.463 279.886C408.359 279.886 408.27 279.851 408.196 279.781C408.122 279.709 408.085 279.623 408.085 279.523C408.085 279.422 408.122 279.337 408.196 279.267C408.27 279.195 408.359 279.159 408.463 279.159C408.567 279.159 408.656 279.195 408.73 279.267C408.804 279.337 408.841 279.422 408.841 279.523C408.841 279.623 408.804 279.709 408.73 279.781C408.656 279.851 408.567 279.886 408.463 279.886ZM412.982 281.594L412.519 281.724C412.474 281.594 412.409 281.475 412.326 281.369C412.243 281.263 412.134 281.179 411.999 281.116C411.867 281.054 411.702 281.023 411.505 281.023C411.21 281.023 410.967 281.093 410.778 281.233C410.588 281.373 410.494 281.554 410.494 281.776C410.494 281.963 410.558 282.116 410.687 282.233C410.817 282.348 411.018 282.44 411.289 282.509L411.948 282.67C412.314 282.759 412.587 282.901 412.769 283.094C412.953 283.287 413.045 283.529 413.045 283.821C413.045 284.067 412.977 284.286 412.84 284.477C412.704 284.669 412.513 284.819 412.269 284.929C412.027 285.037 411.746 285.091 411.425 285.091C410.999 285.091 410.648 284.995 410.371 284.804C410.095 284.611 409.918 284.332 409.84 283.969L410.326 283.849C410.388 284.109 410.511 284.305 410.692 284.438C410.876 284.57 411.118 284.636 411.417 284.636C411.752 284.636 412.02 284.562 412.221 284.412C412.422 284.26 412.522 284.071 412.522 283.844C412.522 283.668 412.463 283.52 412.346 283.401C412.228 283.279 412.05 283.19 411.812 283.134L411.099 282.963C410.72 282.872 410.44 282.728 410.258 282.531C410.076 282.334 409.985 282.09 409.985 281.798C409.985 281.558 410.05 281.347 410.181 281.165C410.312 280.981 410.492 280.837 410.721 280.733C410.95 280.629 411.211 280.577 411.505 280.577C411.905 280.577 412.224 280.668 412.462 280.849C412.703 281.029 412.876 281.277 412.982 281.594ZM413.311 279.659V279.182H417.53V279.659H415.686V285H415.155V279.659H413.311ZM418.168 285V280.636H418.659V281.307H418.696C418.783 281.087 418.935 280.91 419.151 280.776C419.368 280.639 419.615 280.571 419.889 280.571C419.931 280.571 419.977 280.572 420.028 280.574C420.08 280.576 420.122 280.578 420.156 280.58V281.094C420.134 281.09 420.094 281.084 420.037 281.077C419.98 281.069 419.919 281.065 419.852 281.065C419.625 281.065 419.422 281.114 419.244 281.21C419.068 281.305 418.929 281.437 418.827 281.605C418.724 281.774 418.673 281.966 418.673 282.182V285H418.168ZM422.238 285.099C421.975 285.099 421.734 285.048 421.516 284.946C421.299 284.842 421.125 284.692 420.996 284.497C420.868 284.3 420.803 284.062 420.803 283.781C420.803 283.565 420.844 283.384 420.925 283.236C421.007 283.088 421.122 282.967 421.272 282.872C421.422 282.777 421.599 282.703 421.803 282.648C422.008 282.593 422.233 282.55 422.479 282.52C422.724 282.49 422.93 282.463 423.099 282.44C423.269 282.418 423.399 282.382 423.488 282.332C423.577 282.283 423.621 282.204 423.621 282.094V281.991C423.621 281.694 423.532 281.46 423.354 281.29C423.178 281.117 422.924 281.031 422.593 281.031C422.279 281.031 422.022 281.1 421.823 281.239C421.626 281.377 421.488 281.54 421.408 281.727L420.928 281.554C421.027 281.315 421.163 281.125 421.337 280.983C421.512 280.839 421.707 280.736 421.923 280.673C422.138 280.609 422.357 280.577 422.579 280.577C422.746 280.577 422.919 280.598 423.099 280.642C423.281 280.686 423.449 280.761 423.604 280.869C423.76 280.975 423.886 281.124 423.982 281.315C424.079 281.505 424.127 281.745 424.127 282.037V285H423.621V284.31H423.59C423.53 284.438 423.44 284.563 423.32 284.685C423.201 284.806 423.051 284.905 422.871 284.983C422.692 285.061 422.48 285.099 422.238 285.099ZM422.306 284.636C422.575 284.636 422.808 284.577 423.005 284.457C423.202 284.338 423.353 284.18 423.46 283.983C423.567 283.784 423.621 283.565 423.621 283.327V282.696C423.584 282.732 423.52 282.764 423.431 282.793C423.344 282.821 423.243 282.847 423.127 282.869C423.013 282.89 422.9 282.908 422.786 282.923C422.673 282.938 422.57 282.952 422.479 282.963C422.233 282.993 422.023 283.041 421.849 283.105C421.674 283.17 421.541 283.259 421.448 283.372C421.355 283.484 421.309 283.628 421.309 283.804C421.309 284.069 421.404 284.275 421.593 284.42C421.782 284.564 422.02 284.636 422.306 284.636ZM427.177 285.091C426.787 285.091 426.447 284.993 426.157 284.798C425.869 284.603 425.646 284.336 425.487 283.997C425.327 283.658 425.248 283.272 425.248 282.838C425.248 282.401 425.328 282.011 425.489 281.67C425.652 281.33 425.878 281.062 426.165 280.869C426.453 280.674 426.788 280.577 427.168 280.577C427.46 280.577 427.724 280.634 427.961 280.747C428.198 280.859 428.393 281.017 428.546 281.222C428.701 281.424 428.799 281.661 428.839 281.932H428.327C428.274 281.686 428.147 281.475 427.944 281.301C427.743 281.125 427.487 281.037 427.177 281.037C426.898 281.037 426.652 281.113 426.438 281.264C426.224 281.414 426.057 281.623 425.935 281.892C425.816 282.159 425.756 282.469 425.756 282.821C425.756 283.175 425.815 283.489 425.933 283.761C426.05 284.032 426.215 284.244 426.427 284.398C426.641 284.551 426.891 284.628 427.177 284.628C427.37 284.628 427.546 284.592 427.705 284.52C427.866 284.446 428.001 284.342 428.109 284.207C428.219 284.073 428.292 283.913 428.33 283.727H428.842C428.804 283.991 428.71 284.225 428.56 284.432C428.413 284.636 428.22 284.797 427.984 284.915C427.749 285.032 427.48 285.091 427.177 285.091ZM430.386 283.352L430.38 282.69H430.494L432.539 280.636H433.178L431.158 282.659L431.113 282.668L430.386 283.352ZM429.925 285V279.182H430.431V285H429.925ZM432.644 285L430.871 282.759L431.235 282.409L433.292 285H432.644Z" fill="white" fill-opacity="0.42"/>
    <rect x="234" y="23" width="186" height="59" rx="10" fill="#E5FF53" fill-opacity="0.24"/>
    <rect x="234.5" y="23.5" width="185" height="58" rx="9.5" stroke="#E5FF53" stroke-opacity="0.53"/>
    <g filter="url(#filter0_d_5_387)">
        <path d="M258.013 41.9091V63H253.554V46.1417H253.43L248.601 49.1694V45.2148L253.822 41.9091H258.013ZM276.228 51.6925L272.212 51.9396C272.143 51.5964 271.996 51.2874 271.769 51.0128C271.543 50.7313 271.244 50.5082 270.873 50.3434C270.509 50.1718 270.073 50.0859 269.565 50.0859C268.886 50.0859 268.312 50.2301 267.846 50.5185C267.379 50.8 267.145 51.1776 267.145 51.6513C267.145 52.0289 267.296 52.3481 267.598 52.609C267.9 52.8699 268.419 53.0793 269.153 53.2372L272.016 53.8139C273.554 54.1297 274.701 54.6378 275.456 55.3381C276.211 56.0384 276.589 56.9583 276.589 58.098C276.589 59.1347 276.283 60.0444 275.672 60.8271C275.068 61.6097 274.237 62.2208 273.18 62.6602C272.13 63.0927 270.918 63.3089 269.545 63.3089C267.451 63.3089 265.782 62.873 264.54 62.0011C263.304 61.1223 262.58 59.9277 262.367 58.4173L266.682 58.1907C266.812 58.8292 267.128 59.3166 267.629 59.6531C268.13 59.9826 268.772 60.1474 269.555 60.1474C270.324 60.1474 270.942 59.9998 271.409 59.7045C271.882 59.4025 272.123 59.0146 272.13 58.5408C272.123 58.1426 271.955 57.8165 271.625 57.5625C271.295 57.3016 270.787 57.1025 270.101 56.9652L267.362 56.4194C265.817 56.1104 264.667 55.5749 263.912 54.8129C263.163 54.0508 262.789 53.0793 262.789 51.8984C262.789 50.8823 263.064 50.007 263.613 49.2724C264.169 48.5378 264.948 47.9714 265.951 47.5732C266.96 47.175 268.141 46.9759 269.493 46.9759C271.491 46.9759 273.063 47.3981 274.21 48.2425C275.363 49.087 276.036 50.237 276.228 51.6925ZM287.765 47.1818V50.4773H278.239V47.1818H287.765ZM280.402 43.392H284.789V58.1392C284.789 58.5443 284.851 58.8601 284.974 59.0866C285.098 59.3063 285.269 59.4608 285.489 59.5501C285.716 59.6393 285.977 59.6839 286.272 59.6839C286.478 59.6839 286.684 59.6668 286.89 59.6325C287.096 59.5913 287.254 59.5604 287.363 59.5398L288.053 62.8043C287.834 62.873 287.525 62.9519 287.127 63.0412C286.728 63.1373 286.244 63.1957 285.674 63.2163C284.617 63.2575 283.69 63.1167 282.894 62.794C282.104 62.4714 281.49 61.9702 281.051 61.2905C280.611 60.6108 280.395 59.7526 280.402 58.7159V43.392Z" fill="white"/>
        <path d="M359.43 58V47.8182H362.717C363.439 47.8182 364.042 47.9491 364.526 48.2109C365.013 48.4695 365.38 48.8291 365.625 49.2898C365.874 49.7472 365.998 50.2725 365.998 50.8658C365.998 51.459 365.874 51.9827 365.625 52.4368C365.38 52.8909 365.015 53.2455 364.531 53.5007C364.047 53.7559 363.447 53.8835 362.732 53.8835H359.933V53.0334H362.707C363.237 53.0334 363.678 52.9455 364.029 52.7699C364.384 52.5942 364.647 52.344 364.82 52.0192C364.995 51.6944 365.083 51.3099 365.083 50.8658C365.083 50.4216 364.995 50.0339 364.82 49.7024C364.644 49.3677 364.379 49.1091 364.024 48.9268C363.673 48.7446 363.229 48.6534 362.692 48.6534H360.36V58H359.43ZM363.92 53.4062L366.425 58H365.352L362.871 53.4062H363.92ZM370.211 58.174C369.751 58.174 369.33 58.0845 368.949 57.9055C368.567 57.7232 368.264 57.4614 368.039 57.12C367.813 56.7753 367.701 56.3577 367.701 55.8672C367.701 55.4893 367.772 55.1712 367.914 54.9126C368.057 54.6541 368.259 54.442 368.521 54.2763C368.783 54.1106 369.093 53.9796 369.451 53.8835C369.809 53.7874 370.203 53.7128 370.634 53.6598C371.061 53.6068 371.423 53.5604 371.718 53.5206C372.016 53.4808 372.243 53.4179 372.399 53.3317C372.555 53.2455 372.632 53.1063 372.632 52.9141V52.7351C372.632 52.2147 372.477 51.8054 372.165 51.5071C371.857 51.2055 371.413 51.0547 370.833 51.0547C370.283 51.0547 369.833 51.1757 369.485 51.4176C369.141 51.6596 368.899 51.9446 368.76 52.2727L367.919 51.9695C368.092 51.5518 368.33 51.2187 368.635 50.9702C368.94 50.7183 369.282 50.5376 369.659 50.4283C370.037 50.3156 370.42 50.2592 370.808 50.2592C371.1 50.2592 371.403 50.2973 371.718 50.3736C372.036 50.4498 372.331 50.5824 372.603 50.7713C372.874 50.9569 373.095 51.2171 373.264 51.5518C373.433 51.8833 373.517 52.3042 373.517 52.8146V58H372.632V56.7919H372.578C372.472 57.0173 372.314 57.236 372.105 57.4482C371.897 57.6603 371.635 57.8343 371.32 57.9702C371.005 58.1061 370.636 58.174 370.211 58.174ZM370.331 57.3636C370.801 57.3636 371.209 57.2592 371.554 57.0504C371.898 56.8416 372.163 56.5649 372.349 56.2202C372.538 55.8722 372.632 55.4893 372.632 55.0717V53.968C372.566 54.031 372.455 54.0874 372.299 54.1371C372.147 54.1868 371.97 54.2315 371.767 54.2713C371.569 54.3078 371.37 54.3393 371.171 54.3658C370.972 54.3923 370.793 54.4155 370.634 54.4354C370.203 54.4884 369.835 54.5713 369.53 54.6839C369.225 54.7966 368.992 54.9524 368.829 55.1513C368.667 55.3468 368.586 55.5987 368.586 55.907C368.586 56.371 368.751 56.7306 369.083 56.9858C369.414 57.2377 369.83 57.3636 370.331 57.3636ZM376.756 53.2273V58H375.871V50.3636H376.732V51.5618H376.811C376.99 51.1707 377.268 50.8575 377.646 50.6222C378.027 50.3835 378.498 50.2642 379.058 50.2642C379.572 50.2642 380.023 50.3719 380.411 50.5874C380.802 50.7995 381.105 51.1127 381.32 51.527C381.539 51.9413 381.648 52.45 381.648 53.0533V58H380.763V53.108C380.763 52.4815 380.588 51.986 380.237 51.6214C379.888 51.2569 379.421 51.0746 378.835 51.0746C378.433 51.0746 378.077 51.1607 377.766 51.3331C377.454 51.5054 377.207 51.754 377.025 52.0788C376.846 52.4003 376.756 52.7831 376.756 53.2273ZM384.784 55.1165L384.774 53.9581H384.973L388.553 50.3636H389.671L386.137 53.9034L386.057 53.9183L384.784 55.1165ZM383.979 58V47.8182H384.864V58H383.979ZM388.737 58L385.634 54.0774L386.271 53.4659L389.87 58H388.737ZM391.344 58V50.3636H392.234V58H391.344ZM391.797 49.0511C391.614 49.0511 391.459 48.9898 391.329 48.8672C391.2 48.7412 391.135 48.5904 391.135 48.4148C391.135 48.2391 391.2 48.09 391.329 47.9673C391.459 47.8414 391.614 47.7784 391.797 47.7784C391.979 47.7784 392.135 47.8414 392.264 47.9673C392.393 48.09 392.458 48.2391 392.458 48.4148C392.458 48.5904 392.393 48.7412 392.264 48.8672C392.135 48.9898 391.979 49.0511 391.797 49.0511ZM395.46 53.2273V58H394.575V50.3636H395.435V51.5618H395.514C395.693 51.1707 395.972 50.8575 396.349 50.6222C396.731 50.3835 397.201 50.2642 397.761 50.2642C398.275 50.2642 398.726 50.3719 399.114 50.5874C399.505 50.7995 399.808 51.1127 400.023 51.527C400.242 51.9413 400.352 52.45 400.352 53.0533V58H399.467V53.108C399.467 52.4815 399.291 51.986 398.94 51.6214C398.592 51.2569 398.124 51.0746 397.538 51.0746C397.137 51.0746 396.78 51.1607 396.469 51.3331C396.157 51.5054 395.91 51.754 395.728 52.0788C395.549 52.4003 395.46 52.7831 395.46 53.2273ZM405.595 61.0227C405.075 61.0227 404.619 60.9548 404.228 60.8189C403.837 60.6863 403.507 60.504 403.239 60.272C402.97 60.04 402.762 59.7798 402.612 59.4915L403.338 59.0142C403.448 59.2064 403.593 59.3954 403.776 59.581C403.961 59.7666 404.202 59.9207 404.497 60.0433C404.795 60.166 405.161 60.2273 405.595 60.2273C406.271 60.2273 406.817 60.0582 407.231 59.7202C407.649 59.3821 407.857 58.8568 407.857 58.1442V56.424H407.778C407.675 56.656 407.528 56.888 407.335 57.12C407.143 57.3487 406.891 57.5393 406.58 57.6918C406.271 57.8442 405.889 57.9205 405.431 57.9205C404.821 57.9205 404.28 57.7696 403.806 57.468C403.335 57.1664 402.964 56.7356 402.692 56.1754C402.423 55.612 402.289 54.9408 402.289 54.1619C402.289 53.3897 402.42 52.7102 402.682 52.1236C402.947 51.5369 403.317 51.0795 403.791 50.7514C404.265 50.4233 404.816 50.2592 405.446 50.2592C405.914 50.2592 406.301 50.3421 406.61 50.5078C406.918 50.6702 407.165 50.8724 407.35 51.1143C407.539 51.3563 407.687 51.5916 407.793 51.8203H407.882V50.3636H408.747V58.1989C408.747 58.8452 408.61 59.3771 408.335 59.7947C408.06 60.2124 407.685 60.5206 407.211 60.7195C406.737 60.9216 406.199 61.0227 405.595 61.0227ZM405.536 57.1101C406.026 57.1101 406.445 56.9924 406.794 56.7571C407.142 56.5185 407.408 56.1771 407.594 55.733C407.78 55.2888 407.872 54.7602 407.872 54.147C407.872 53.5504 407.781 53.0218 407.599 52.5611C407.417 52.0971 407.151 51.7325 406.803 51.4673C406.459 51.1989 406.036 51.0646 405.536 51.0646C405.025 51.0646 404.594 51.2022 404.243 51.4773C403.892 51.7524 403.627 52.1236 403.448 52.5909C403.269 53.0549 403.179 53.5736 403.179 54.147C403.179 54.7304 403.27 55.2457 403.453 55.6932C403.635 56.1373 403.902 56.4853 404.253 56.7372C404.604 56.9858 405.032 57.1101 405.536 57.1101Z" fill="white"/>
    </g>
    <rect x="234" y="86" width="186" height="59" rx="10" fill="#E5FF53" fill-opacity="0.24"/>
    <rect x="234.5" y="86.5" width="185" height="58" rx="9.5" stroke="#E5FF53" stroke-opacity="0.53"/>
    <g filter="url(#filter1_d_5_387)">
        <path d="M249.182 126V104.909H257.503C259.103 104.909 260.466 105.215 261.592 105.826C262.718 106.43 263.576 107.271 264.166 108.349C264.764 109.42 265.062 110.656 265.062 112.056C265.062 113.457 264.76 114.692 264.156 115.763C263.552 116.835 262.676 117.669 261.53 118.266C260.39 118.863 259.01 119.162 257.39 119.162H252.086V115.588H256.669C257.527 115.588 258.234 115.441 258.791 115.146C259.354 114.844 259.772 114.428 260.047 113.9C260.328 113.364 260.469 112.75 260.469 112.056C260.469 111.356 260.328 110.745 260.047 110.223C259.772 109.694 259.354 109.286 258.791 108.998C258.228 108.702 257.514 108.555 256.648 108.555H253.641V126H249.182ZM270.585 131.932C270.029 131.932 269.507 131.887 269.019 131.798C268.539 131.716 268.141 131.609 267.825 131.479L268.813 128.204C269.328 128.362 269.792 128.448 270.204 128.461C270.622 128.475 270.983 128.379 271.285 128.173C271.594 127.967 271.844 127.617 272.037 127.123L272.294 126.453L266.62 110.182H271.233L274.508 121.798H274.673L277.979 110.182H282.623L276.475 127.71C276.18 128.561 275.778 129.302 275.27 129.934C274.769 130.572 274.134 131.063 273.365 131.407C272.596 131.757 271.669 131.932 270.585 131.932ZM293.282 110.182V113.477H283.756V110.182H293.282ZM285.919 106.392H290.306V121.139C290.306 121.544 290.368 121.86 290.491 122.087C290.615 122.306 290.786 122.461 291.006 122.55C291.233 122.639 291.494 122.684 291.789 122.684C291.995 122.684 292.201 122.667 292.407 122.632C292.613 122.591 292.771 122.56 292.88 122.54L293.57 125.804C293.351 125.873 293.042 125.952 292.644 126.041C292.245 126.137 291.761 126.196 291.192 126.216C290.134 126.257 289.207 126.117 288.411 125.794C287.621 125.471 287.007 124.97 286.568 124.29C286.128 123.611 285.912 122.753 285.919 121.716V106.392ZM300.867 116.855V126H296.48V104.909H300.743V112.973H300.929C301.286 112.039 301.862 111.308 302.659 110.779C303.455 110.244 304.454 109.976 305.655 109.976C306.754 109.976 307.712 110.216 308.529 110.697C309.353 111.17 309.991 111.854 310.444 112.746C310.904 113.632 311.131 114.692 311.124 115.928V126H306.737V116.711C306.744 115.736 306.497 114.977 305.995 114.435C305.501 113.893 304.808 113.621 303.915 113.621C303.318 113.621 302.789 113.748 302.329 114.002C301.876 114.257 301.519 114.627 301.258 115.115C301.004 115.595 300.874 116.175 300.867 116.855ZM321.723 126.309C320.124 126.309 318.74 125.969 317.573 125.289C316.413 124.603 315.517 123.649 314.885 122.426C314.254 121.198 313.938 119.773 313.938 118.153C313.938 116.519 314.254 115.091 314.885 113.869C315.517 112.64 316.413 111.685 317.573 111.006C318.74 110.319 320.124 109.976 321.723 109.976C323.323 109.976 324.703 110.319 325.863 111.006C327.03 111.685 327.93 112.64 328.561 113.869C329.193 115.091 329.509 116.519 329.509 118.153C329.509 119.773 329.193 121.198 328.561 122.426C327.93 123.649 327.03 124.603 325.863 125.289C324.703 125.969 323.323 126.309 321.723 126.309ZM321.744 122.911C322.472 122.911 323.079 122.705 323.567 122.293C324.054 121.874 324.422 121.304 324.669 120.583C324.923 119.862 325.05 119.042 325.05 118.122C325.05 117.202 324.923 116.381 324.669 115.661C324.422 114.94 324.054 114.37 323.567 113.951C323.079 113.532 322.472 113.323 321.744 113.323C321.009 113.323 320.391 113.532 319.89 113.951C319.396 114.37 319.022 114.94 318.768 115.661C318.521 116.381 318.397 117.202 318.397 118.122C318.397 119.042 318.521 119.862 318.768 120.583C319.022 121.304 319.396 121.874 319.89 122.293C320.391 122.705 321.009 122.911 321.744 122.911ZM336.749 116.855V126H332.362V110.182H336.543V112.973H336.728C337.078 112.053 337.665 111.325 338.489 110.789C339.313 110.247 340.312 109.976 341.486 109.976C342.584 109.976 343.542 110.216 344.359 110.697C345.176 111.177 345.811 111.864 346.264 112.756C346.717 113.642 346.944 114.699 346.944 115.928V126H342.557V116.711C342.564 115.743 342.317 114.988 341.815 114.445C341.314 113.896 340.624 113.621 339.745 113.621C339.155 113.621 338.633 113.748 338.18 114.002C337.734 114.257 337.384 114.627 337.13 115.115C336.883 115.595 336.755 116.175 336.749 116.855Z" fill="white"/>
        <path d="M381.655 121V110.818H385.09C385.753 110.818 386.305 110.934 386.746 111.166C387.19 111.398 387.523 111.715 387.745 112.116C387.967 112.517 388.078 112.973 388.078 113.483C388.078 113.907 388.007 114.27 387.865 114.572C387.722 114.873 387.528 115.117 387.283 115.303C387.038 115.488 386.764 115.622 386.463 115.705V115.785C386.791 115.808 387.109 115.924 387.417 116.133C387.725 116.338 387.979 116.627 388.178 116.998C388.377 117.369 388.476 117.813 388.476 118.33C388.476 118.844 388.362 119.303 388.133 119.707C387.904 120.108 387.553 120.425 387.079 120.657C386.608 120.886 386.008 121 385.279 121H381.655ZM382.585 120.165H385.279C386.065 120.165 386.645 119.991 387.019 119.643C387.397 119.295 387.586 118.857 387.586 118.33C387.586 117.942 387.492 117.591 387.303 117.276C387.117 116.958 386.854 116.706 386.512 116.521C386.174 116.335 385.776 116.242 385.319 116.242H382.585V120.165ZM382.585 115.417H385.175C385.576 115.417 385.927 115.334 386.229 115.168C386.53 115.003 386.766 114.774 386.935 114.482C387.104 114.191 387.188 113.857 387.188 113.483C387.188 112.943 387.013 112.504 386.661 112.165C386.31 111.824 385.786 111.653 385.09 111.653H382.585V115.417ZM393.623 121.159C392.91 121.159 392.294 120.993 391.773 120.662C391.253 120.327 390.85 119.865 390.565 119.275C390.284 118.682 390.143 117.999 390.143 117.227C390.143 116.458 390.284 115.775 390.565 115.178C390.85 114.578 391.243 114.109 391.744 113.771C392.247 113.43 392.829 113.259 393.489 113.259C393.903 113.259 394.302 113.335 394.687 113.488C395.071 113.637 395.416 113.867 395.721 114.179C396.029 114.487 396.273 114.877 396.452 115.347C396.631 115.815 396.72 116.368 396.72 117.008V117.445H390.754V116.665H395.815C395.815 116.174 395.716 115.733 395.517 115.342C395.321 114.948 395.048 114.636 394.697 114.408C394.349 114.179 393.946 114.065 393.489 114.065C393.005 114.065 392.579 114.194 392.211 114.452C391.843 114.711 391.555 115.052 391.346 115.477C391.14 115.901 391.036 116.365 391.033 116.869V117.336C391.033 117.942 391.137 118.473 391.346 118.927C391.558 119.378 391.858 119.727 392.246 119.976C392.634 120.224 393.093 120.349 393.623 120.349C393.984 120.349 394.301 120.292 394.572 120.18C394.848 120.067 395.078 119.916 395.263 119.727C395.452 119.535 395.595 119.325 395.691 119.096L396.531 119.369C396.415 119.691 396.225 119.987 395.96 120.259C395.698 120.531 395.37 120.75 394.975 120.915C394.584 121.078 394.133 121.159 393.623 121.159ZM403.801 115.039L402.991 115.268C402.911 115.039 402.798 114.832 402.653 114.646C402.507 114.461 402.316 114.313 402.081 114.204C401.849 114.094 401.56 114.04 401.216 114.04C400.699 114.04 400.274 114.162 399.943 114.408C399.612 114.653 399.446 114.969 399.446 115.357C399.446 115.685 399.559 115.952 399.784 116.158C400.013 116.36 400.364 116.521 400.838 116.64L401.991 116.923C402.631 117.079 403.11 117.326 403.428 117.664C403.75 118.002 403.91 118.426 403.91 118.937C403.91 119.368 403.791 119.75 403.552 120.085C403.314 120.42 402.981 120.683 402.553 120.876C402.129 121.065 401.637 121.159 401.077 121.159C400.331 121.159 399.716 120.992 399.232 120.657C398.748 120.319 398.438 119.832 398.302 119.195L399.153 118.987C399.262 119.441 399.476 119.784 399.794 120.016C400.115 120.248 400.538 120.364 401.062 120.364C401.648 120.364 402.117 120.233 402.469 119.971C402.82 119.706 402.996 119.374 402.996 118.977C402.996 118.668 402.893 118.41 402.687 118.201C402.482 117.989 402.17 117.833 401.753 117.734L400.505 117.435C399.842 117.276 399.351 117.024 399.033 116.68C398.715 116.335 398.556 115.907 398.556 115.397C398.556 114.976 398.67 114.607 398.899 114.288C399.128 113.967 399.443 113.715 399.844 113.533C400.245 113.35 400.702 113.259 401.216 113.259C401.915 113.259 402.474 113.418 402.891 113.737C403.312 114.051 403.615 114.486 403.801 115.039ZM408.856 113.364V114.134H405.212V113.364H408.856ZM406.35 111.534H407.24V119.006C407.24 119.325 407.295 119.575 407.404 119.757C407.513 119.936 407.656 120.064 407.832 120.14C408.007 120.213 408.195 120.249 408.393 120.249C408.509 120.249 408.609 120.243 408.692 120.229C408.775 120.213 408.848 120.196 408.911 120.18L409.099 120.98C409.013 121.013 408.907 121.043 408.781 121.07C408.655 121.099 408.5 121.114 408.314 121.114C407.989 121.114 407.676 121.043 407.374 120.901C407.076 120.758 406.831 120.546 406.638 120.264C406.446 119.982 406.35 119.633 406.35 119.215V111.534Z" fill="white"/>
    </g>
    <rect x="234" y="149" width="186" height="59" rx="10" fill="#E5FF53" fill-opacity="0.24"/>
    <rect x="234.5" y="149.5" width="185" height="58" rx="9.5" stroke="#E5FF53" stroke-opacity="0.53"/>
    <g filter="url(#filter2_d_5_387)">
        <path d="M248.982 189V185.787L256.489 178.836C257.128 178.218 257.663 177.662 258.096 177.167C258.535 176.673 258.868 176.189 259.095 175.715C259.321 175.235 259.435 174.716 259.435 174.16C259.435 173.542 259.294 173.01 259.013 172.564C258.731 172.111 258.347 171.764 257.859 171.524C257.372 171.277 256.819 171.153 256.201 171.153C255.556 171.153 254.993 171.283 254.512 171.544C254.032 171.805 253.661 172.179 253.4 172.667C253.139 173.154 253.009 173.734 253.009 174.407H248.776C248.776 173.027 249.088 171.829 249.713 170.813C250.338 169.797 251.213 169.011 252.339 168.455C253.465 167.899 254.763 167.621 256.232 167.621C257.742 167.621 259.057 167.888 260.176 168.424C261.302 168.953 262.178 169.687 262.802 170.628C263.427 171.568 263.739 172.646 263.739 173.862C263.739 174.658 263.582 175.444 263.266 176.22C262.957 176.996 262.404 177.857 261.608 178.805C260.811 179.745 259.689 180.875 258.24 182.193L255.161 185.21V185.354H264.017V189H248.982ZM276.424 167.909V189H271.965V172.142H271.842L267.012 175.169V171.215L272.233 167.909H276.424Z" fill="white"/>
        <path d="M318.813 184H317.839L321.543 173.818H322.537L326.241 184H325.267L322.075 175.026H322.005L318.813 184ZM319.514 180.097H324.566V180.933H319.514V180.097ZM330.785 184.159C330.102 184.159 329.507 183.988 329 183.647C328.496 183.306 328.105 182.838 327.827 182.245C327.549 181.652 327.409 180.976 327.409 180.217C327.409 179.451 327.55 178.77 327.832 178.173C328.117 177.577 328.511 177.109 329.015 176.771C329.519 176.43 330.104 176.259 330.77 176.259C331.281 176.259 331.743 176.359 332.157 176.558C332.572 176.753 332.913 177.03 333.181 177.388C333.453 177.742 333.624 178.157 333.693 178.631H332.799C332.706 178.2 332.482 177.832 332.127 177.527C331.776 177.219 331.329 177.065 330.785 177.065C330.298 177.065 329.867 177.197 329.492 177.462C329.118 177.724 328.825 178.09 328.612 178.561C328.404 179.028 328.299 179.57 328.299 180.187C328.299 180.807 328.402 181.355 328.608 181.832C328.813 182.306 329.101 182.678 329.473 182.946C329.847 183.214 330.285 183.349 330.785 183.349C331.123 183.349 331.431 183.286 331.71 183.16C331.992 183.031 332.227 182.848 332.416 182.613C332.608 182.378 332.737 182.098 332.804 181.773H333.698C333.632 182.233 333.468 182.644 333.206 183.006C332.948 183.364 332.611 183.645 332.197 183.851C331.786 184.056 331.315 184.159 330.785 184.159ZM336.48 179.227V184H335.595V173.818H336.48V177.562H336.56C336.739 177.167 337.015 176.853 337.39 176.617C337.768 176.382 338.245 176.264 338.822 176.264C339.339 176.264 339.793 176.37 340.184 176.582C340.575 176.795 340.88 177.108 341.099 177.522C341.317 177.936 341.427 178.447 341.427 179.053V184H340.537V179.108C340.537 178.478 340.361 177.983 340.01 177.621C339.662 177.257 339.191 177.075 338.598 177.075C338.19 177.075 337.827 177.161 337.509 177.333C337.191 177.505 336.939 177.754 336.753 178.079C336.571 178.4 336.48 178.783 336.48 179.227ZM343.767 184V176.364H344.657V184H343.767ZM344.22 175.051C344.037 175.051 343.881 174.99 343.752 174.867C343.623 174.741 343.558 174.59 343.558 174.415C343.558 174.239 343.623 174.09 343.752 173.967C343.881 173.841 344.037 173.778 344.22 173.778C344.402 173.778 344.558 173.841 344.687 173.967C344.816 174.09 344.881 174.239 344.881 174.415C344.881 174.59 344.816 174.741 344.687 174.867C344.558 174.99 344.402 175.051 344.22 175.051ZM350.085 184.159C349.372 184.159 348.756 183.993 348.235 183.662C347.715 183.327 347.312 182.865 347.027 182.275C346.746 181.682 346.605 180.999 346.605 180.227C346.605 179.458 346.746 178.775 347.027 178.178C347.312 177.578 347.705 177.109 348.206 176.771C348.709 176.43 349.291 176.259 349.951 176.259C350.365 176.259 350.764 176.335 351.149 176.488C351.533 176.637 351.878 176.867 352.183 177.179C352.491 177.487 352.735 177.877 352.914 178.347C353.093 178.815 353.182 179.368 353.182 180.008V180.445H347.216V179.665H352.277C352.277 179.174 352.178 178.733 351.979 178.342C351.783 177.948 351.51 177.636 351.159 177.408C350.811 177.179 350.408 177.065 349.951 177.065C349.467 177.065 349.041 177.194 348.673 177.452C348.305 177.711 348.017 178.052 347.808 178.477C347.602 178.901 347.498 179.365 347.495 179.869V180.336C347.495 180.942 347.599 181.473 347.808 181.927C348.02 182.378 348.32 182.727 348.708 182.976C349.095 183.224 349.554 183.349 350.085 183.349C350.446 183.349 350.763 183.292 351.034 183.18C351.309 183.067 351.54 182.916 351.725 182.727C351.914 182.535 352.057 182.325 352.153 182.096L352.993 182.369C352.877 182.691 352.687 182.987 352.421 183.259C352.16 183.531 351.831 183.75 351.437 183.915C351.046 184.078 350.595 184.159 350.085 184.159ZM360.811 176.364L358.022 184H357.077L354.288 176.364H355.248L357.515 182.832H357.584L359.851 176.364H360.811ZM365.356 184.159C364.644 184.159 364.027 183.993 363.507 183.662C362.986 183.327 362.584 182.865 362.299 182.275C362.017 181.682 361.876 180.999 361.876 180.227C361.876 179.458 362.017 178.775 362.299 178.178C362.584 177.578 362.977 177.109 363.477 176.771C363.981 176.43 364.562 176.259 365.222 176.259C365.636 176.259 366.036 176.335 366.42 176.488C366.805 176.637 367.149 176.867 367.454 177.179C367.763 177.487 368.006 177.877 368.185 178.347C368.364 178.815 368.454 179.368 368.454 180.008V180.445H362.488V179.665H367.549C367.549 179.174 367.449 178.733 367.25 178.342C367.055 177.948 366.781 177.636 366.43 177.408C366.082 177.179 365.679 177.065 365.222 177.065C364.738 177.065 364.312 177.194 363.944 177.452C363.576 177.711 363.288 178.052 363.079 178.477C362.874 178.901 362.769 179.365 362.766 179.869V180.336C362.766 180.942 362.87 181.473 363.079 181.927C363.291 182.378 363.591 182.727 363.979 182.976C364.367 183.224 364.826 183.349 365.356 183.349C365.718 183.349 366.034 183.292 366.306 183.18C366.581 183.067 366.811 182.916 366.997 182.727C367.186 182.535 367.328 182.325 367.424 182.096L368.265 182.369C368.149 182.691 367.958 182.987 367.693 183.259C367.431 183.531 367.103 183.75 366.709 183.915C366.317 184.078 365.867 184.159 365.356 184.159ZM370.404 184V176.364H371.264V177.537H371.343C371.496 177.143 371.749 176.833 372.104 176.607C372.462 176.379 372.891 176.264 373.392 176.264C373.919 176.264 374.351 176.388 374.689 176.637C375.031 176.882 375.286 177.22 375.455 177.651H375.519C375.692 177.227 375.972 176.891 376.36 176.642C376.751 176.39 377.225 176.264 377.782 176.264C378.491 176.264 379.051 176.488 379.462 176.935C379.873 177.379 380.078 178.029 380.078 178.884V184H379.193V178.884C379.193 178.281 379.039 177.829 378.731 177.527C378.423 177.225 378.017 177.075 377.513 177.075C376.93 177.075 376.481 177.254 376.166 177.612C375.851 177.969 375.693 178.424 375.693 178.974V184H374.789V178.805C374.789 178.288 374.644 177.87 374.356 177.552C374.068 177.234 373.662 177.075 373.138 177.075C372.787 177.075 372.47 177.161 372.188 177.333C371.91 177.505 371.69 177.746 371.527 178.054C371.368 178.359 371.289 178.71 371.289 179.108V184H370.404ZM385.509 184.159C384.796 184.159 384.18 183.993 383.659 183.662C383.139 183.327 382.736 182.865 382.451 182.275C382.169 181.682 382.028 180.999 382.028 180.227C382.028 179.458 382.169 178.775 382.451 178.178C382.736 177.578 383.129 177.109 383.629 176.771C384.133 176.43 384.715 176.259 385.374 176.259C385.789 176.259 386.188 176.335 386.573 176.488C386.957 176.637 387.302 176.867 387.607 177.179C387.915 177.487 388.158 177.877 388.337 178.347C388.516 178.815 388.606 179.368 388.606 180.008V180.445H382.64V179.665H387.701C387.701 179.174 387.602 178.733 387.403 178.342C387.207 177.948 386.934 177.636 386.582 177.408C386.234 177.179 385.832 177.065 385.374 177.065C384.89 177.065 384.465 177.194 384.097 177.452C383.729 177.711 383.44 178.052 383.232 178.477C383.026 178.901 382.922 179.365 382.918 179.869V180.336C382.918 180.942 383.023 181.473 383.232 181.927C383.444 182.378 383.744 182.727 384.131 182.976C384.519 183.224 384.978 183.349 385.509 183.349C385.87 183.349 386.186 183.292 386.458 183.18C386.733 183.067 386.964 182.916 387.149 182.727C387.338 182.535 387.481 182.325 387.577 182.096L388.417 182.369C388.301 182.691 388.11 182.987 387.845 183.259C387.583 183.531 387.255 183.75 386.861 183.915C386.47 184.078 386.019 184.159 385.509 184.159ZM391.441 179.227V184H390.556V176.364H391.416V177.562H391.496C391.675 177.171 391.953 176.857 392.331 176.622C392.712 176.384 393.183 176.264 393.743 176.264C394.257 176.264 394.707 176.372 395.095 176.587C395.486 176.799 395.789 177.113 396.005 177.527C396.224 177.941 396.333 178.45 396.333 179.053V184H395.448V179.108C395.448 178.482 395.272 177.986 394.921 177.621C394.573 177.257 394.106 177.075 393.519 177.075C393.118 177.075 392.762 177.161 392.45 177.333C392.139 177.505 391.892 177.754 391.709 178.079C391.53 178.4 391.441 178.783 391.441 179.227ZM401.671 176.364V177.134H398.027V176.364H401.671ZM399.166 174.534H400.055V182.006C400.055 182.325 400.11 182.575 400.22 182.757C400.329 182.936 400.471 183.064 400.647 183.14C400.823 183.213 401.01 183.249 401.209 183.249C401.325 183.249 401.424 183.243 401.507 183.229C401.59 183.213 401.663 183.196 401.726 183.18L401.915 183.98C401.829 184.013 401.723 184.043 401.597 184.07C401.471 184.099 401.315 184.114 401.129 184.114C400.805 184.114 400.491 184.043 400.19 183.901C399.891 183.758 399.646 183.546 399.454 183.264C399.262 182.982 399.166 182.633 399.166 182.215V174.534ZM408.675 178.039L407.865 178.268C407.785 178.039 407.672 177.832 407.527 177.646C407.381 177.461 407.19 177.313 406.955 177.204C406.723 177.094 406.434 177.04 406.09 177.04C405.573 177.04 405.148 177.162 404.817 177.408C404.486 177.653 404.32 177.969 404.32 178.357C404.32 178.685 404.433 178.952 404.658 179.158C404.887 179.36 405.238 179.521 405.712 179.64L406.865 179.923C407.505 180.079 407.984 180.326 408.302 180.664C408.624 181.002 408.784 181.426 408.784 181.937C408.784 182.368 408.665 182.75 408.426 183.085C408.188 183.42 407.855 183.683 407.427 183.876C407.003 184.065 406.511 184.159 405.951 184.159C405.205 184.159 404.59 183.992 404.106 183.657C403.622 183.319 403.312 182.832 403.176 182.195L404.027 181.987C404.136 182.441 404.35 182.784 404.668 183.016C404.989 183.248 405.412 183.364 405.936 183.364C406.522 183.364 406.991 183.233 407.343 182.971C407.694 182.706 407.87 182.374 407.87 181.977C407.87 181.668 407.767 181.41 407.561 181.201C407.356 180.989 407.044 180.833 406.627 180.734L405.379 180.435C404.716 180.276 404.225 180.024 403.907 179.68C403.589 179.335 403.43 178.907 403.43 178.397C403.43 177.976 403.544 177.607 403.773 177.288C404.002 176.967 404.317 176.715 404.718 176.533C405.119 176.35 405.576 176.259 406.09 176.259C406.789 176.259 407.348 176.418 407.765 176.737C408.186 177.051 408.489 177.486 408.675 178.039Z" fill="white"/>
    </g>
    <rect x="234" y="212" width="186" height="59" rx="10" fill="#D9D9D9" fill-opacity="0.24"/>
    <rect x="234.5" y="212.5" width="185" height="58" rx="9.5" stroke="#D9D9D9" stroke-opacity="0.21"/>
    <g filter="url(#filter3_d_5_387)">
        <path d="M248.765 252V248.787L256.273 241.836C256.911 241.218 257.447 240.662 257.879 240.167C258.319 239.673 258.652 239.189 258.878 238.715C259.105 238.235 259.218 237.716 259.218 237.16C259.218 236.542 259.077 236.01 258.796 235.564C258.514 235.111 258.13 234.764 257.642 234.524C257.155 234.277 256.602 234.153 255.984 234.153C255.339 234.153 254.776 234.283 254.295 234.544C253.815 234.805 253.444 235.179 253.183 235.667C252.922 236.154 252.792 236.734 252.792 237.407H248.559C248.559 236.027 248.872 234.829 249.496 233.813C250.121 232.797 250.996 232.011 252.122 231.455C253.248 230.899 254.546 230.621 256.015 230.621C257.526 230.621 258.84 230.888 259.959 231.424C261.085 231.953 261.961 232.687 262.585 233.628C263.21 234.568 263.523 235.646 263.523 236.862C263.523 237.658 263.365 238.444 263.049 239.22C262.74 239.996 262.187 240.857 261.391 241.805C260.594 242.745 259.472 243.875 258.023 245.193L254.944 248.21V248.354H263.801V252H248.765ZM275.301 252.463C273.53 252.457 272.006 252.021 270.729 251.156C269.459 250.29 268.48 249.038 267.794 247.397C267.114 245.756 266.778 243.782 266.785 241.475C266.785 239.175 267.124 237.215 267.804 235.595C268.491 233.975 269.469 232.742 270.739 231.898C272.016 231.046 273.537 230.621 275.301 230.621C277.066 230.621 278.583 231.046 279.853 231.898C281.13 232.749 282.112 233.985 282.798 235.605C283.485 237.219 283.825 239.175 283.818 241.475C283.818 243.789 283.475 245.766 282.788 247.407C282.108 249.048 281.134 250.301 279.863 251.166C278.593 252.031 277.073 252.463 275.301 252.463ZM275.301 248.766C276.51 248.766 277.474 248.159 278.195 246.944C278.916 245.728 279.273 243.906 279.266 241.475C279.266 239.875 279.101 238.544 278.772 237.479C278.449 236.415 277.989 235.615 277.392 235.08C276.801 234.544 276.105 234.277 275.301 234.277C274.1 234.277 273.139 234.877 272.418 236.079C271.697 237.28 271.333 239.079 271.326 241.475C271.326 243.095 271.488 244.448 271.81 245.533C272.14 246.611 272.603 247.421 273.2 247.963C273.798 248.499 274.498 248.766 275.301 248.766ZM286.678 248.293V244.781L295.483 230.909H298.511V235.77H296.719L291.168 244.554V244.719H303.681V248.293H286.678ZM296.802 252V247.222L296.884 245.667V230.909H301.065V252H296.802ZM315.544 230.909V252H311.085V235.142H310.962L306.132 238.169V234.215L311.353 230.909H315.544ZM324.985 242.855V252H320.598V230.909H324.862V238.973H325.047C325.404 238.039 325.981 237.308 326.777 236.779C327.574 236.244 328.573 235.976 329.774 235.976C330.873 235.976 331.83 236.216 332.647 236.697C333.471 237.17 334.11 237.854 334.563 238.746C335.023 239.632 335.249 240.692 335.243 241.928V252H330.855V242.711C330.862 241.736 330.615 240.977 330.114 240.435C329.62 239.893 328.926 239.621 328.034 239.621C327.436 239.621 326.908 239.748 326.448 240.002C325.995 240.257 325.638 240.627 325.377 241.115C325.123 241.595 324.992 242.175 324.985 242.855Z" fill="white"/>
        <path d="M372.441 240H371.506C371.437 239.652 371.311 239.33 371.128 239.036C370.949 238.737 370.724 238.477 370.452 238.255C370.181 238.033 369.872 237.861 369.528 237.738C369.183 237.615 368.81 237.554 368.409 237.554C367.766 237.554 367.179 237.721 366.649 238.056C366.122 238.391 365.699 238.883 365.381 239.533C365.066 240.179 364.909 240.971 364.909 241.909C364.909 242.854 365.066 243.649 365.381 244.295C365.699 244.942 366.122 245.432 366.649 245.767C367.179 246.098 367.766 246.264 368.409 246.264C368.81 246.264 369.183 246.203 369.528 246.08C369.872 245.958 370.181 245.787 370.452 245.568C370.724 245.346 370.949 245.086 371.128 244.788C371.311 244.489 371.437 244.166 371.506 243.818H372.441C372.358 244.286 372.202 244.721 371.974 245.126C371.748 245.527 371.46 245.878 371.109 246.18C370.761 246.481 370.36 246.717 369.905 246.886C369.451 247.055 368.953 247.139 368.409 247.139C367.554 247.139 366.795 246.925 366.132 246.498C365.469 246.067 364.949 245.46 364.571 244.678C364.196 243.896 364.009 242.973 364.009 241.909C364.009 240.845 364.196 239.922 364.571 239.14C364.949 238.358 365.469 237.753 366.132 237.325C366.795 236.894 367.554 236.679 368.409 236.679C368.953 236.679 369.451 236.763 369.905 236.933C370.36 237.098 370.761 237.334 371.109 237.638C371.46 237.94 371.748 238.291 371.974 238.692C372.202 239.094 372.358 239.529 372.441 240ZM377.409 247.159C376.749 247.159 376.166 246.992 375.659 246.657C375.155 246.322 374.761 245.86 374.476 245.27C374.191 244.677 374.048 243.992 374.048 243.217C374.048 242.434 374.191 241.747 374.476 241.153C374.761 240.557 375.155 240.093 375.659 239.761C376.166 239.427 376.749 239.259 377.409 239.259C378.068 239.259 378.65 239.427 379.154 239.761C379.658 240.096 380.052 240.56 380.337 241.153C380.625 241.747 380.77 242.434 380.77 243.217C380.77 243.992 380.627 244.677 380.342 245.27C380.057 245.86 379.661 246.322 379.154 246.657C378.65 246.992 378.068 247.159 377.409 247.159ZM377.409 246.349C377.939 246.349 378.388 246.206 378.756 245.921C379.124 245.636 379.402 245.257 379.591 244.783C379.784 244.309 379.88 243.787 379.88 243.217C379.88 242.647 379.784 242.123 379.591 241.646C379.402 241.168 379.124 240.786 378.756 240.497C378.388 240.209 377.939 240.065 377.409 240.065C376.882 240.065 376.433 240.209 376.062 240.497C375.694 240.786 375.414 241.168 375.221 241.646C375.032 242.123 374.938 242.647 374.938 243.217C374.938 243.787 375.032 244.309 375.221 244.783C375.414 245.257 375.694 245.636 376.062 245.921C376.429 246.206 376.879 246.349 377.409 246.349ZM385.462 247.159C384.835 247.159 384.287 246.993 383.816 246.662C383.345 246.33 382.977 245.868 382.712 245.275C382.45 244.682 382.32 243.991 382.32 243.202C382.32 242.416 382.45 241.728 382.712 241.138C382.977 240.545 383.347 240.085 383.821 239.756C384.295 239.425 384.847 239.259 385.476 239.259C385.94 239.259 386.327 239.342 386.635 239.508C386.943 239.67 387.19 239.872 387.376 240.114C387.561 240.356 387.705 240.592 387.808 240.82H387.888V236.818H388.778V247H387.913V245.583H387.808C387.705 245.815 387.56 246.054 387.371 246.299C387.182 246.541 386.931 246.745 386.62 246.911C386.312 247.076 385.926 247.159 385.462 247.159ZM385.566 246.349C386.06 246.349 386.481 246.214 386.829 245.946C387.177 245.674 387.442 245.301 387.624 244.827C387.81 244.35 387.903 243.803 387.903 243.187C387.903 242.577 387.811 242.038 387.629 241.571C387.447 241.1 387.182 240.732 386.834 240.467C386.486 240.199 386.063 240.065 385.566 240.065C385.056 240.065 384.625 240.204 384.273 240.482C383.925 240.757 383.66 241.13 383.478 241.601C383.299 242.071 383.209 242.6 383.209 243.187C383.209 243.78 383.301 244.315 383.483 244.793C383.665 245.27 383.93 245.649 384.278 245.931C384.63 246.21 385.059 246.349 385.566 246.349ZM391.308 247V239.364H392.198V247H391.308ZM391.761 238.051C391.578 238.051 391.422 237.99 391.293 237.867C391.164 237.741 391.099 237.59 391.099 237.415C391.099 237.239 391.164 237.09 391.293 236.967C391.422 236.841 391.578 236.778 391.761 236.778C391.943 236.778 392.099 236.841 392.228 236.967C392.357 237.09 392.422 237.239 392.422 237.415C392.422 237.59 392.357 237.741 392.228 237.867C392.099 237.99 391.943 238.051 391.761 238.051ZM395.423 242.227V247H394.538V239.364H395.399V240.562H395.478C395.657 240.171 395.935 239.857 396.313 239.622C396.694 239.384 397.165 239.264 397.725 239.264C398.239 239.264 398.69 239.372 399.078 239.587C399.469 239.799 399.772 240.113 399.987 240.527C400.206 240.941 400.315 241.45 400.315 242.053V247H399.43V242.108C399.43 241.482 399.255 240.986 398.903 240.621C398.555 240.257 398.088 240.075 397.502 240.075C397.1 240.075 396.744 240.161 396.433 240.333C396.121 240.505 395.874 240.754 395.692 241.079C395.513 241.4 395.423 241.783 395.423 242.227ZM405.559 250.023C405.039 250.023 404.583 249.955 404.192 249.819C403.801 249.686 403.471 249.504 403.203 249.272C402.934 249.04 402.725 248.78 402.576 248.491L403.302 248.014C403.411 248.206 403.557 248.395 403.74 248.581C403.925 248.767 404.166 248.921 404.46 249.043C404.759 249.166 405.125 249.227 405.559 249.227C406.235 249.227 406.781 249.058 407.195 248.72C407.612 248.382 407.821 247.857 407.821 247.144V245.424H407.742C407.639 245.656 407.492 245.888 407.299 246.12C407.107 246.349 406.855 246.539 406.544 246.692C406.235 246.844 405.853 246.92 405.395 246.92C404.785 246.92 404.243 246.77 403.769 246.468C403.299 246.166 402.928 245.736 402.656 245.175C402.387 244.612 402.253 243.941 402.253 243.162C402.253 242.39 402.384 241.71 402.646 241.124C402.911 240.537 403.281 240.08 403.755 239.751C404.228 239.423 404.78 239.259 405.41 239.259C405.877 239.259 406.265 239.342 406.573 239.508C406.882 239.67 407.129 239.872 407.314 240.114C407.503 240.356 407.651 240.592 407.757 240.82H407.846V239.364H408.711V247.199C408.711 247.845 408.574 248.377 408.299 248.795C408.023 249.212 407.649 249.521 407.175 249.719C406.701 249.922 406.162 250.023 405.559 250.023ZM405.5 246.11C405.99 246.11 406.409 245.992 406.757 245.757C407.105 245.518 407.372 245.177 407.558 244.733C407.743 244.289 407.836 243.76 407.836 243.147C407.836 242.55 407.745 242.022 407.563 241.561C407.38 241.097 407.115 240.732 406.767 240.467C406.423 240.199 406 240.065 405.5 240.065C404.989 240.065 404.558 240.202 404.207 240.477C403.856 240.752 403.59 241.124 403.411 241.591C403.233 242.055 403.143 242.574 403.143 243.147C403.143 243.73 403.234 244.246 403.416 244.693C403.599 245.137 403.866 245.485 404.217 245.737C404.568 245.986 404.996 246.11 405.5 246.11Z" fill="white"/>
    </g>
    <circle cx="113" cy="181" r="96" fill="url(#pattern0_5_387)" stroke="black" stroke-opacity="0.3"/>
    <!-- <g filter="url(#filter4_d_5_387)">
        <path d="M92.1761 32.9091H98.2557V53.1932C98.2557 55.0682 97.8343 56.697 96.9915 58.0795C96.1581 59.4621 94.9981 60.5275 93.5114 61.2756C92.0246 62.0237 90.2964 62.3977 88.3267 62.3977C86.5748 62.3977 84.9839 62.09 83.554 61.4744C82.1335 60.8494 81.0066 59.9025 80.1733 58.6335C79.34 57.3551 78.928 55.75 78.9375 53.8182H85.0597C85.0786 54.5852 85.2348 55.2434 85.5284 55.7926C85.8314 56.3324 86.2434 56.7491 86.7642 57.0426C87.2945 57.3267 87.9195 57.4688 88.6392 57.4688C89.3968 57.4688 90.036 57.3078 90.5568 56.9858C91.0871 56.6544 91.4896 56.1714 91.7642 55.5369C92.0388 54.9025 92.1761 54.1212 92.1761 53.1932V32.9091ZM109.449 62.4119C108.057 62.4119 106.816 62.1705 105.727 61.6875C104.638 61.1951 103.777 60.4706 103.142 59.5142C102.517 58.5483 102.205 57.3456 102.205 55.9062C102.205 54.6941 102.427 53.6761 102.872 52.8523C103.317 52.0284 103.923 51.3655 104.69 50.8636C105.457 50.3617 106.329 49.983 107.304 49.7273C108.289 49.4716 109.321 49.2917 110.401 49.1875C111.67 49.0549 112.692 48.9318 113.469 48.8182C114.245 48.6951 114.809 48.5152 115.159 48.2784C115.509 48.0417 115.685 47.6913 115.685 47.2273V47.142C115.685 46.2424 115.401 45.5464 114.832 45.054C114.274 44.5616 113.478 44.3153 112.446 44.3153C111.357 44.3153 110.491 44.5568 109.847 45.0398C109.203 45.5133 108.777 46.1098 108.568 46.8295L102.972 46.375C103.256 45.0492 103.814 43.9034 104.648 42.9375C105.481 41.9621 106.556 41.214 107.872 40.6932C109.198 40.1629 110.732 39.8977 112.474 39.8977C113.687 39.8977 114.847 40.0398 115.955 40.3239C117.072 40.608 118.062 41.0483 118.923 41.6449C119.795 42.2415 120.481 43.0085 120.983 43.946C121.485 44.8741 121.736 45.9867 121.736 47.2841V62H115.997V58.9744H115.827C115.476 59.6562 115.008 60.2576 114.42 60.7784C113.833 61.2898 113.128 61.6922 112.304 61.9858C111.48 62.2699 110.528 62.4119 109.449 62.4119ZM111.182 58.2358C112.072 58.2358 112.858 58.0606 113.54 57.7102C114.222 57.3504 114.757 56.8674 115.145 56.2614C115.533 55.6553 115.727 54.9687 115.727 54.2017V51.8864C115.538 52.0095 115.277 52.1231 114.946 52.2273C114.624 52.322 114.259 52.4119 113.852 52.4972C113.445 52.5729 113.038 52.6439 112.631 52.7102C112.223 52.767 111.854 52.8191 111.523 52.8665C110.813 52.9706 110.192 53.1364 109.662 53.3636C109.132 53.5909 108.72 53.8987 108.426 54.2869C108.133 54.6657 107.986 55.1392 107.986 55.7074C107.986 56.5312 108.284 57.161 108.881 57.5966C109.487 58.0227 110.254 58.2358 111.182 58.2358ZM129.385 70.1818C128.618 70.1818 127.898 70.1203 127.226 69.9972C126.563 69.8835 126.014 69.7367 125.578 69.5568L126.942 65.0398C127.652 65.2576 128.291 65.3759 128.859 65.3949C129.437 65.4138 129.934 65.2813 130.351 64.9972C130.777 64.7131 131.123 64.2301 131.388 63.5483L131.743 62.625L123.916 40.1818H130.28L134.797 56.2045H135.024L139.584 40.1818H145.99L137.51 64.358C137.103 65.5322 136.549 66.5549 135.848 67.4261C135.157 68.3068 134.281 68.9839 133.22 69.4574C132.16 69.9403 130.881 70.1818 129.385 70.1818Z" fill="white"/>
    </g> -->
    <text>{{DISPLAY_NAME}}</text>
    <defs>
        <filter id="filter0_d_5_387" x="244.601" y="37.9091" width="168.147" height="29.3999" filterUnits="userSpaceOnUse" color-interpolation-filters="sRGB">
            <feFlood flood-opacity="0" result="BackgroundImageFix"/>
            <feColorMatrix in="SourceAlpha" type="matrix" values="0 0 0 0 0 0 0 0 0 0 0 0 0 0 0 0 0 0 127 0" result="hardAlpha"/>
            <feOffset/>
            <feGaussianBlur stdDeviation="2"/>
            <feComposite in2="hardAlpha" operator="out"/>
            <feColorMatrix type="matrix" values="0 0 0 0 0 0 0 0 0 0 0 0 0 0 0 0 0 0 0.3 0"/>
            <feBlend mode="normal" in2="BackgroundImageFix" result="effect1_dropShadow_5_387"/>
            <feBlend mode="normal" in="SourceGraphic" in2="effect1_dropShadow_5_387" result="shape"/>
        </filter>
        <filter id="filter1_d_5_387" x="245.182" y="100.909" width="167.917" height="35.0227" filterUnits="userSpaceOnUse" color-interpolation-filters="sRGB">
            <feFlood flood-opacity="0" result="BackgroundImageFix"/>
            <feColorMatrix in="SourceAlpha" type="matrix" values="0 0 0 0 0 0 0 0 0 0 0 0 0 0 0 0 0 0 127 0" result="hardAlpha"/>
            <feOffset/>
            <feGaussianBlur stdDeviation="2"/>
            <feComposite in2="hardAlpha" operator="out"/>
            <feColorMatrix type="matrix" values="0 0 0 0 0 0 0 0 0 0 0 0 0 0 0 0 0 0 0.3 0"/>
            <feBlend mode="normal" in2="BackgroundImageFix" result="effect1_dropShadow_5_387"/>
            <feBlend mode="normal" in="SourceGraphic" in2="effect1_dropShadow_5_387" result="shape"/>
        </filter>
        <filter id="filter2_d_5_387" x="244.776" y="163.621" width="168.008" height="29.3792" filterUnits="userSpaceOnUse" color-interpolation-filters="sRGB">
            <feFlood flood-opacity="0" result="BackgroundImageFix"/>
            <feColorMatrix in="SourceAlpha" type="matrix" values="0 0 0 0 0 0 0 0 0 0 0 0 0 0 0 0 0 0 127 0" result="hardAlpha"/>
            <feOffset/>
            <feGaussianBlur stdDeviation="2"/>
            <feComposite in2="hardAlpha" operator="out"/>
            <feColorMatrix type="matrix" values="0 0 0 0 0 0 0 0 0 0 0 0 0 0 0 0 0 0 0.3 0"/>
            <feBlend mode="normal" in2="BackgroundImageFix" result="effect1_dropShadow_5_387"/>
            <feBlend mode="normal" in="SourceGraphic" in2="effect1_dropShadow_5_387" result="shape"/>
        </filter>
        <filter id="filter3_d_5_387" x="244.559" y="226.621" width="168.152" height="29.8425" filterUnits="userSpaceOnUse" color-interpolation-filters="sRGB">
            <feFlood flood-opacity="0" result="BackgroundImageFix"/>
            <feColorMatrix in="SourceAlpha" type="matrix" values="0 0 0 0 0 0 0 0 0 0 0 0 0 0 0 0 0 0 127 0" result="hardAlpha"/>
            <feOffset/>
            <feGaussianBlur stdDeviation="2"/>
            <feComposite in2="hardAlpha" operator="out"/>
            <feColorMatrix type="matrix" values="0 0 0 0 0 0 0 0 0 0 0 0 0 0 0 0 0 0 0.3 0"/>
            <feBlend mode="normal" in2="BackgroundImageFix" result="effect1_dropShadow_5_387"/>
            <feBlend mode="normal" in="SourceGraphic" in2="effect1_dropShadow_5_387" result="shape"/>
        </filter>
        <pattern id="pattern0_5_387" patternContentUnits="objectBoundingBox" width="1" height="1">
            <use xlink:href="#image0_5_387" transform="translate(-0.0040404) scale(0.0020202)"/>
        </pattern>
        <filter id="filter4_d_5_387" x="74.9233" y="28.9091" width="75.0667" height="45.2727" filterUnits="userSpaceOnUse" color-interpolation-filters="sRGB">
            <feFlood flood-opacity="0" result="BackgroundImageFix"/>
            <feColorMatrix in="SourceAlpha" type="matrix" values="0 0 0 0 0 0 0 0 0 0 0 0 0 0 0 0 0 0 127 0" result="hardAlpha"/>
            <feOffset/>
            <feGaussianBlur stdDeviation="2"/>
            <feComposite in2="hardAlpha" operator="out"/>
            <feColorMatrix type="matrix" values="0 0 0 0 0 0 0 0 0 0 0 0 0 0 0 0 0 0 0.3 0"/>
            <feBlend mode="normal" in2="BackgroundImageFix" result="effect1_dropShadow_5_387"/>
            <feBlend mode="normal" in="SourceGraphic" in2="effect1_dropShadow_5_387" result="shape"/>
        </filter>
        <linearGradient id="paint0_linear_5_387" x1="221.5" y1="0" x2="221.5" y2="293" gradientUnits="userSpaceOnUse">
            <stop stop-color="#FF8989"/>
            <stop offset="1"/>
        </linearGradient>
        <image id="image0_5_387" width="499" height="495" preserveAspectRatio="none" xlink:href="{{AVATAR_DATA_URL}}" href="{{AVATAR_DATA_URL}}" />
    </defs>
</svg>
